<?xml version="1.0" encoding="utf-8"?><svg viewBox="0 0 1920 329" xmlns="http://www.w3.org/2000/svg" xmlns:xlink="http://www.w3.org/1999/xlink"><style>:root>svg{display:none}:root>svg:target{display:block}</style><svg fill="none" viewBox="0 0 20 20" id="adress_mail" xmlns="http://www.w3.org/2000/svg"><path d="M19.824 3.973L13.758 10l6.066 6.026c.11-.229.176-.482.176-.753V4.726c0-.27-.067-.524-.176-.753zM18.242 2.969H1.758c-.27 0-.524.066-.753.176l7.752 7.713a1.76 1.76 0 002.486 0l7.752-7.713a1.737 1.737 0 00-.753-.176zM.176 3.973c-.11.23-.176.483-.176.753v10.547c0 .27.067.524.176.753L6.242 10 .176 3.973z" fill="#69B98F"/><path d="M12.93 10.829l-.859.858a2.933 2.933 0 01-4.142 0l-.859-.858-6.065 6.026c.229.11.482.176.753.176h16.484c.27 0 .524-.066.753-.176L12.93 10.83z" fill="#69B98F"/></svg><svg fill="none" viewBox="0 0 20 20" id="adress_phone" xmlns="http://www.w3.org/2000/svg"><g clip-path="url(#abclip0)" fill="#69B98F"><path d="M8.282 11.718C6.372 9.81 5.942 7.9 5.844 7.136a.686.686 0 01.197-.574l1.545-1.544a.69.69 0 00.097-.854L5.223.344a.69.69 0 00-.893-.25L.382 1.953a.686.686 0 00-.38.684C.21 4.604 1.066 9.436 5.814 14.184c4.749 4.749 9.58 5.605 11.546 5.812a.686.686 0 00.686-.38l1.86-3.948a.69.69 0 00-.25-.892l-3.82-2.459a.69.69 0 00-.854.097l-1.544 1.545a.685.685 0 01-.574.197c-.764-.098-2.673-.529-4.582-2.438z"/><path d="M15.862 10.69a.69.69 0 01-.69-.69A5.178 5.178 0 0010 4.828a.69.69 0 110-1.38A6.559 6.559 0 0116.552 10a.69.69 0 01-.69.69z"/><path d="M19.31 10.69a.69.69 0 01-.69-.69A8.63 8.63 0 0010 1.38.69.69 0 1110 0c5.52.006 9.994 4.48 10 10a.69.69 0 01-.69.69z"/></g><defs><clipPath id="abclip0"><path fill="#fff" d="M0 0h20v20H0z"/></clipPath></defs></svg><svg fill="none" viewBox="0 0 9 16" id="arrow-right" xmlns="http://www.w3.org/2000/svg"><path d="M8.707 8.707a1 1 0 000-1.414L2.343.929A1 1 0 00.93 2.343L6.586 8 .929 13.657a1 1 0 101.414 1.414l6.364-6.364zM7 9h1V7H7v2z" fill="#000"/></svg><svg fill="none" viewBox="0 0 28 28" id="clock" xmlns="http://www.w3.org/2000/svg"><path d="M14 4.565a.61.61 0 00.609-.609v-.304A.61.61 0 0014 3.043a.61.61 0 00-.609.61v.304a.61.61 0 00.61.608zM14 23.435a.61.61 0 00-.609.608v.305a.61.61 0 00.61.608.61.61 0 00.608-.608v-.305a.61.61 0 00-.609-.608zM3.957 13.391h-.305a.61.61 0 00-.609.61.61.61 0 00.61.608h.304A.61.61 0 004.564 14a.61.61 0 00-.609-.609zM24.348 13.391h-.304a.61.61 0 00-.61.61.61.61 0 00.61.608h.304a.61.61 0 00.609-.609.61.61 0 00-.61-.609zM7.122 6.27a.588.588 0 00-.852 0 .588.588 0 000 .852l.213.213a.6.6 0 00.426.182.6.6 0 00.426-.182.588.588 0 000-.852l-.213-.213zM6.483 20.665l-.213.213a.588.588 0 000 .852.601.601 0 00.426.183c.152 0 .304-.06.426-.183l.213-.213a.588.588 0 000-.852.588.588 0 00-.852 0zM20.878 6.27l-.213.213a.588.588 0 000 .852.6.6 0 00.426.182c.152 0 .305-.06.426-.182l.213-.213a.588.588 0 000-.852.588.588 0 00-.852 0zM14.609 13.757v-5.54A.61.61 0 0014 7.61a.61.61 0 00-.609.608V14a.6.6 0 00.183.426l6.665 6.665a.601.601 0 00.426.183.6.6 0 00.426-.183.588.588 0 000-.852l-6.482-6.482z" fill="#000"/><path d="M14 0C6.27 0 0 6.27 0 14s6.27 14 14 14 14-6.27 14-14S21.73 0 14 0zm0 26.783C6.94 26.783 1.217 21.06 1.217 14 1.217 6.94 6.94 1.217 14 1.217c7.06 0 12.783 5.722 12.783 12.783 0 7.06-5.722 12.783-12.783 12.783z" fill="#000"/></svg><svg viewBox="0 0 329.269 329" id="close" xmlns="http://www.w3.org/2000/svg"><path d="M194.8 164.77L323.013 36.555c8.343-8.34 8.343-21.825 0-30.164-8.34-8.34-21.825-8.34-30.164 0L164.633 134.605 36.422 6.391c-8.344-8.34-21.824-8.34-30.164 0-8.344 8.34-8.344 21.824 0 30.164l128.21 128.215L6.259 292.984c-8.344 8.34-8.344 21.825 0 30.164a21.266 21.266 0 0015.082 6.25c5.46 0 10.922-2.09 15.082-6.25l128.21-128.214 128.216 128.214a21.273 21.273 0 0015.082 6.25c5.46 0 10.922-2.09 15.082-6.25 8.343-8.34 8.343-21.824 0-30.164zm0 0"/></svg><svg fill="none" viewBox="0 0 100 100" id="family" xmlns="http://www.w3.org/2000/svg"><g clip-path="url(#afclip0)"><path d="M21.896 22.646h-9.2c-4.183 0-7.466 3.421-7.1 7.397l1.549 16.751h14.75V22.646z" fill="#D77F4A"/><path d="M40.348 69.625H9.397a6.526 6.526 0 00-6.526 6.526V89.66h44.26V76.151c0-3.37-2.6-6.526-6.783-6.526z" fill="#65CCBB"/><path d="M18.191 69.625a6.81 6.81 0 0013.619 0H18.19z" fill="#82AEE3"/><path d="M25 71.75l-6.81-4.57-4.123 1.987a.725.725 0 00-.181 1.182l5.575 5.236a.725.725 0 00.964.026l4.576-3.862z" fill="#C0D6F2"/><path d="M25.001 71.75l6.811-4.57 4.123 1.987c.458.22.552.833.181 1.182l-5.575 5.236a.725.725 0 01-.964.026L25 71.749z" fill="#C0D6F2"/><path d="M31.812 53.235H18.19v13.946l6.812 4.568 6.811-4.568V53.235z" fill="#FFB09E"/><path d="M40.348 69.625h-5.623c4.183 0 6.783 3.155 6.783 6.526V89.66h5.623V76.151c0-3.37-2.6-6.526-6.783-6.526z" fill="#01998D"/><path d="M35.935 69.167l-4.123-1.986-2.137 1.433 1.148.553c.458.22.553.833.181 1.182l-3.626 3.406 2.199 1.856a.725.725 0 00.964-.026l5.575-5.236a.725.725 0 00-.181-1.182z" fill="#B2CAEC"/><path d="M18.19 66.014a16.26 16.26 0 006.68 1.427h.213c2.4 0 4.678-.518 6.73-1.448v-13.27H18.19v13.291z" fill="#FFA78F"/><path d="M16.951 51.177h-8.42a5.576 5.576 0 110-11.153h8.42v11.153z" fill="#FFB09E"/><path d="M33 40.024h8.41a5.576 5.576 0 110 11.152H33V40.024z" fill="#FFA78F"/><path d="M25.084 64.885h-.214c-9.013 0-16.319-7.306-16.319-16.319v-5.932c0-9.012 7.306-16.318 16.319-16.318h.213c9.013 0 16.319 7.306 16.319 16.318v5.932c0 9.013-7.306 16.319-16.319 16.319z" fill="#FFCEBF"/><path d="M25.084 26.316h-.214c-.656 0-1.302.04-1.938.115 8.099.958 14.38 7.846 14.38 16.203v5.932c0 8.357-6.281 15.245-14.38 16.204.636.075 1.282.115 1.938.115h.214c9.012 0 16.318-7.306 16.318-16.319v-5.932c0-9.013-7.306-16.318-16.318-16.318z" fill="#FFB09E"/><path d="M36.898 54.322h-2.85a1.353 1.353 0 010-2.706h2.85a1.353 1.353 0 010 2.706zM15.953 54.322h-2.85a1.352 1.352 0 110-2.706h2.85a1.353 1.353 0 010 2.706z" fill="#FE8F83"/><path d="M40.764 23.027a8.76 8.76 0 00-8.107-5.443H19.381c-5.4 0-9.777 4.378-9.777 9.778 0 6.869 5.47 12.456 12.292 12.652v.01h22.6l.926-10.011c.292-3.158-1.721-5.964-4.658-6.986z" fill="#D77F4A"/><path d="M40.764 23.027a8.76 8.76 0 00-8.107-5.443h-5.623c3.664 0 6.8 2.25 8.107 5.443 2.937 1.022 4.95 3.828 4.658 6.986l-.926 10.01h5.623l.926-10.01c.292-3.158-1.721-5.964-4.658-6.986z" fill="#C86D36"/><path d="M29.963 53.14a4.987 4.987 0 11-9.974 0h9.974z" fill="#FFB09E"/><path d="M84.13 70.805a9.596 9.596 0 01-9.595-9.596c0-5.3 4.296-9.596 9.596-9.596s9.596 4.296 9.596 9.596-4.296 9.596-9.596 9.596z" fill="#5A5A5A"/><path d="M84.13 51.613c-.882 0-1.737.122-2.549.345 4.062 1.117 7.046 4.834 7.046 9.251s-2.984 8.134-7.046 9.251a9.596 9.596 0 0012.146-9.251c0-5.3-4.296-9.596-9.596-9.596z" fill="#444"/><path d="M96.664 89.66H52.046V76.09a7.016 7.016 0 017.017-7.017h30.584a7.016 7.016 0 017.017 7.016v13.57z" fill="#C0D6F2"/><path d="M89.647 69.073h-4.59a7.016 7.016 0 017.017 7.016v13.57h4.59v-13.57a7.016 7.016 0 00-7.017-7.016z" fill="#B2CAEC"/><path d="M59.164 69.073h30.383v20.586H59.164V69.073z" fill="#528FD8"/><path d="M74.535 76.073a7 7 0 01-7-6.999V52.23h14v16.844a7 7 0 01-7 7z" fill="#FFB09E"/><path d="M67.535 68.221a16.803 16.803 0 006.98 1.508c2.504 0 4.882-.547 7.019-1.527V52.23H67.535v15.991z" fill="#FFA78F"/><path d="M66.263 52.079h-8.65a5.733 5.733 0 110-11.467h8.65V52.08z" fill="#FFB09E"/><path d="M82.754 40.612h8.65a5.733 5.733 0 110 11.466h-8.65V40.612z" fill="#FFA78F"/><path d="M74.515 66.16c-9.315 0-16.867-7.551-16.867-16.866v-5.888c0-9.315 7.552-16.866 16.867-16.866 9.315 0 16.866 7.551 16.866 16.866v5.888c0 9.315-7.551 16.866-16.866 16.866z" fill="#FFCEBF"/><path d="M74.515 26.54c-.779 0-1.545.054-2.295.156 8.229 1.12 14.571 8.174 14.571 16.71v5.888c0 8.536-6.342 15.59-14.571 16.71.75.102 1.516.156 2.295.156 9.315 0 16.866-7.551 16.866-16.866v-5.888c0-9.315-7.551-16.866-16.866-16.866z" fill="#FFB09E"/><path d="M74.515 66.16c-9.315 0-16.867-7.551-16.867-16.866v-5.888c0-9.315 7.552-16.866 16.867-16.866 9.315 0 16.866 7.551 16.866 16.866v5.888c0 9.315-7.551 16.866-16.866 16.866z" fill="#FFCEBF"/><path d="M74.514 26.54c-.69 0-1.37.042-2.04.123 8.353 1.007 14.827 8.119 14.827 16.743v5.888c0 8.624-6.474 15.736-14.826 16.743.668.08 1.349.123 2.04.123 9.314 0 16.866-7.551 16.866-16.866v-5.888c0-9.315-7.552-16.866-16.867-16.866z" fill="#FFB09E"/><path d="M59.196 40.612h-4.555v-3.227c0-9.761 7.913-17.674 17.674-17.674h.049a3.276 3.276 0 013.275 3.276v1.182c0 9.081-7.361 16.443-16.443 16.443z" fill="#5A5A5A"/><path d="M93.727 40.612H75.04c-6.712 0-12.153-5.441-12.153-12.153a8.748 8.748 0 018.748-8.748h5.227c9.315 0 16.866 7.551 16.866 16.867v4.034z" fill="#5A5A5A"/><path d="M76.86 19.711h-5.1c9.316 0 16.867 7.552 16.867 16.867v4.034h5.1v-4.034c0-9.315-7.551-16.867-16.867-16.867z" fill="#444"/><path d="M86.233 54.405h-2.842a1.35 1.35 0 010-2.699h2.842a1.35 1.35 0 010 2.699zM65.337 54.405h-2.842a1.35 1.35 0 010-2.699h2.842a1.35 1.35 0 010 2.699z" fill="#FE8F83"/><path d="M79.487 54.404a4.988 4.988 0 11-9.974 0h9.974z" fill="#FFB09E"/><path d="M49.132 22.07a1.684 1.684 0 002.112 0l7.583-6.11a12.32 12.32 0 004.064-6.03 6.565 6.565 0 00-8.887-7.927c-1.486.617-2.69 1.423-3.821 2.442-1.126-1.015-2.33-1.823-3.822-2.442a6.565 6.565 0 00-8.887 7.927 12.32 12.32 0 004.065 6.03l7.593 6.11z" fill="#EB5569"/><path d="M61.757 3.96a6.566 6.566 0 00-7.753-1.957c-.058.024-.113.05-.17.075a6.566 6.566 0 013.518 7.851 12.319 12.319 0 01-4.065 6.032l-5.87 4.73 1.715 1.38a1.684 1.684 0 002.112-.001l7.583-6.11a12.319 12.319 0 004.064-6.03 6.566 6.566 0 00-1.134-5.97z" fill="#E53950"/><path d="M41.66 83.01h-.598a5.884 5.884 0 00-5.884 5.883v9.642h30.008v-9.642a5.884 5.884 0 00-5.884-5.884H41.661z" fill="#F07281"/><path d="M59.303 83.01h-4.82a5.884 5.884 0 015.884 5.883v9.642h4.82v-9.642a5.884 5.884 0 00-5.884-5.884z" fill="#EB5569"/><path d="M50.163 89.206a5.125 5.125 0 01-5.125-5.125V71.748h10.25v12.333a5.125 5.125 0 01-5.125 5.125z" fill="#FFB09E"/><path d="M45.038 83.352a12.43 12.43 0 005.12 1.098c1.831 0 3.567-.396 5.13-1.102v-11.6h-10.25v11.604z" fill="#FFA78F"/><path d="M68.41 84.581h2.56V77.53a7.458 7.458 0 00-7.457-7.458h-2.561v7.053a7.458 7.458 0 007.457 7.457z" fill="#5A5A5A"/><path d="M63.513 70.071h-2.561v.215a7.46 7.46 0 015.681 7.243v6.838c.57.139 1.164.214 1.776.214h2.561v-7.052a7.458 7.458 0 00-7.457-7.458z" fill="#444"/><path d="M31.878 84.581h-2.56V77.53a7.458 7.458 0 017.457-7.458h2.561v7.053a7.458 7.458 0 01-7.457 7.457z" fill="#5A5A5A"/><path d="M44.126 71.748h-6.352a4.2 4.2 0 010-8.398h6.352v8.398z" fill="#FFB09E"/><path d="M56.162 63.35h6.352a4.2 4.2 0 010 8.398h-6.352V63.35z" fill="#FFA78F"/><path d="M50.159 53.046c-6.821 0-12.35 5.461-12.35 12.198v4.618c0 6.737 5.529 12.198 12.35 12.198 6.82 0 12.35-5.461 12.35-12.198v-4.618c0-6.737-5.53-12.198-12.35-12.198z" fill="#FFCEBF"/><path d="M50.159 53.046c-.65 0-1.29.05-1.912.146 5.913.908 10.438 5.958 10.438 12.052v4.618c0 6.094-4.526 11.144-10.438 12.052.623.096 1.261.146 1.912.146 6.821 0 12.35-5.461 12.35-12.198v-4.618c0-6.737-5.529-12.198-12.35-12.198z" fill="#FFB09E"/><path d="M43.676 74.268H41.56a1.147 1.147 0 110-2.295h2.116a1.147 1.147 0 110 2.295zM58.805 74.268h-2.116a1.147 1.147 0 110-2.295h2.116a1.147 1.147 0 110 2.295z" fill="#FE8F83"/><path d="M51.453 45.924a1.31 1.31 0 00-1.309 1.309 1.31 1.31 0 00-1.31-1.31c-7.803 0-14.129 6.327-14.129 14.13v3.297h8.245a7.194 7.194 0 007.194-7.194 7.194 7.194 0 007.194 7.194h8.245v-3.297c0-7.803-6.326-14.13-14.13-14.13z" fill="#5A5A5A"/><path d="M51.453 45.924c-.375 0-.712.158-.951.411 6.168 1.517 10.743 7.082 10.743 13.718v3.297h4.338v-3.297c0-7.803-6.326-14.13-14.13-14.13z" fill="#444"/><path d="M80.904 72.372l-6.84 1.7.396-1.013a1.363 1.363 0 00-2.436-1.203l-2.642 4.361c-.216.307-.39.646-.513 1.012l-7.088 21.306h8.757l3.207-16.425 7.997-8.286a.872.872 0 00-.838-1.452z" fill="#FFCEBF"/><path d="M80.904 72.372l-2.288.569a.87.87 0 01-.199.883L70.42 82.11l-3.207 16.425h3.324l3.207-16.425 7.997-8.286a.872.872 0 00-.837-1.452z" fill="#FFB09E"/><path d="M30.32 76.217l-2.643-4.36a1.363 1.363 0 00-2.435 1.201l.396 1.014-6.84-1.7a.872.872 0 00-.838 1.451l7.997 8.287 3.207 16.425h8.757l-7.088-21.307a3.9 3.9 0 00-.513-1.011z" fill="#FFCEBF"/><path d="M82.746 50.59c.809 0 1.465-.656 1.465-1.465v-1.652a1.465 1.465 0 00-.128-2.924h-1.337c-.81 0-1.465.656-1.465 1.465v3.111c0 .81.655 1.465 1.465 1.465zM66.254 44.548h-1.337a1.465 1.465 0 00-.127 2.925v1.652a1.465 1.465 0 102.93 0v-3.111c0-.81-.656-1.466-1.466-1.466zM68.048 54.404a6.46 6.46 0 006.452 6.452 6.46 6.46 0 006.452-6.452c0-.808-.656-1.464-1.465-1.464h-9.974c-.809 0-1.465.656-1.465 1.465zm9.655 1.465a3.527 3.527 0 01-3.203 2.058 3.527 3.527 0 01-3.203-2.058h6.406zM16.807 43.815c-.81 0-1.465.656-1.465 1.465v3.028a1.465 1.465 0 102.93 0V45.28c0-.809-.656-1.465-1.465-1.465zM32.856 49.773c.81 0 1.465-.656 1.465-1.465V45.28a1.465 1.465 0 10-2.93 0v3.028c0 .81.656 1.465 1.465 1.465zM24.976 59.591a6.459 6.459 0 006.452-6.452c0-.809-.655-1.465-1.465-1.465H19.99c-.809 0-1.465.656-1.465 1.465a6.46 6.46 0 006.452 6.452zm3.203-4.987a3.527 3.527 0 01-3.202 2.057 3.527 3.527 0 01-3.203-2.057h6.405zM40.62 17.102l7.593 6.11a3.151 3.151 0 003.95-.002l7.583-6.109a13.73 13.73 0 004.547-6.748 8.04 8.04 0 00-1.388-7.301A8.018 8.018 0 0053.433.654c-1.178.49-2.233 1.1-3.25 1.883C48.361 1.134 46.052 0 43.762 0a7.987 7.987 0 00-6.303 3.052 8.04 8.04 0 00-1.388 7.301c.806 2.667 2.379 5 4.549 6.749zm-.863-12.233a5.074 5.074 0 014.004-1.939c1.914 0 4.02 1.323 5.44 2.603a1.465 1.465 0 001.962 0c1.073-.967 2.154-1.659 3.402-2.177l.02-.008a5.092 5.092 0 016.022 1.52c2.612 3.305-.02 7.793-2.7 9.952-8.153 6.57-7.658 6.269-7.857 6.11l-7.593-6.11c-2.604-2.098-5.372-6.57-2.7-9.951z" fill="#000"/><path d="M92.703 68.18a11.052 11.052 0 002.48-6.97c0-2.759-1.048-5.426-2.896-7.454l.068-.278c3.517-.47 6.24-3.489 6.24-7.133a7.199 7.199 0 00-3.412-6.117v-1.952a1.465 1.465 0 10-2.93 0v.871H75.031c-5.092 0-9.444-3.605-10.464-8.507a5.086 5.086 0 01-.012-.059c-1.106-5.466 2.547-9.405 7.07-9.405h5.227c6.766 0 12.673 4.333 14.697 10.782a1.465 1.465 0 002.795-.877 18.487 18.487 0 00-6.542-9.206 18.18 18.18 0 00-10.95-3.629h-5.227c-.604 0-1.195.056-1.77.157-9.517 1.218-16.688 9.37-16.688 18.982v3.227l.003.075a7.216 7.216 0 00-2.542 3.898 2.75 2.75 0 00-.485.203c-.727-.391-1.333-.33-1.783-.317a7.04 7.04 0 00-2.414-4.251l.008-.062.925-10.01c.326-3.521-1.717-6.832-5.023-8.266a10.185 10.185 0 00-9.2-5.763H19.381c-4.14 0-7.763 2.251-9.714 5.593-3.573 1.294-5.872 4.757-5.529 8.464l.863 9.335A7.044 7.044 0 001.489 45.6c0 3.547 2.636 6.488 6.052 6.97 1.187 5.14 4.61 9.435 9.184 11.801v1.89l-3.294 1.586c-.173.084-.332.19-.475.314h-3.56c-4.406 0-7.99 3.584-7.99 7.99V89.66c0 .81.655 1.465 1.465 1.465h12.884a1.465 1.465 0 100-2.93H4.335V76.151c0-2.79 2.27-5.06 5.061-5.06h3.202c.193.27.104.156 5.86 5.563.173.16.378.295.569.384l5.575 5.778 1.05 5.378h-3.058a1.465 1.465 0 100 2.93h3.63l1.502 7.692A1.465 1.465 0 0029.164 100h41.373c.7 0 1.303-.496 1.438-1.184l1.501-7.692h23.188c.809 0 1.465-.656 1.465-1.465V76.09c0-3.6-2.255-6.68-5.426-7.91zm-19.512 1.555a2.899 2.899 0 00-.288.016c-.78.077-1.48.468-1.955 1.089l-.02.026c-.055.074-.108.15-.157.231l-.423.698a8.88 8.88 0 00-1.117-1.114c-.301-.991-.24-1.49-.24-3.9a18.456 18.456 0 0011.069-.013c0 2.448.092 3.166-.415 4.407l-2.102.523-1.566.39a2.857 2.857 0 00-.36-.971c-.128-.236-.512-.643-.732-.816a2.802 2.802 0 00-1.694-.566zM60.724 97.07H38.977l-2.233-6.712-.101-.304v-1.16a4.424 4.424 0 014.419-4.42h2.522c.214 3.623 3.325 6.368 6.911 6.189a6.604 6.604 0 006.246-6.188h2.561c2.174 0 4.04 1.623 4.367 3.745l-.866 2.602-2.079 6.248zM18.07 68.865l4.305 2.887-3.224-.801a2.339 2.339 0 00-2.018.438l-1.46-1.37 2.397-1.154zm32.074-7.895a8.658 8.658 0 007.193 3.845h3.698v.005c.006.142.009.283.009.424 0 5.02.033 5.17-.116 6.177l-.012.086c-.815 5.206-5.4 9.088-10.758 9.088-5.33 0-9.937-3.852-10.758-9.088-.165-1.057-.128-1.282-.128-6.263a10.535 10.535 0 01.01-.43h3.667a8.658 8.658 0 007.195-3.844zM53.7 44.623a4.303 4.303 0 012.506-2.31c-.04.693-.032 1.123-.032 2.875a16.374 16.374 0 00-2.474-.565zm13.778 32.143l-1.88 5.653a6 6 0 01-3.183-5.295v-.956c.51-.966.905-2.008 1.164-3.057a5.712 5.712 0 002.363-1.055c.426.19.812.419 1.163.683a6.05 6.05 0 011.515 1.663c.016.027.034.052.05.08l.024.042c-.81 1.334-.978 1.525-1.216 2.242zm-13.657 7.316a3.664 3.664 0 01-3.66 3.66 3.664 3.664 0 01-3.66-3.66V83.04c2.435.663 5.016.626 7.32-.002v1.044zm-22.5-9.039a5.995 5.995 0 013.02-2.989 5.698 5.698 0 002.397 1.063c.25 1.011.632 2.03 1.132 2.991v1.016a5.99 5.99 0 01-3.689 5.533c-2.443-7.343-1.926-6.072-2.86-7.614zm5.02-9.799v4.63a2.72 2.72 0 01-1.28-2l-.005-.022a2.73 2.73 0 011.286-2.632v.024zm-4.03 3.804c.06.216.132.428.216.634a9.014 9.014 0 00-2.921 2.532l-.677-1.117-.044-.068-.055-.085 3.1-2.08.381.184zm8.144 10.53c.767.748 1.62 1.41 2.545 1.967-2.087 0-2.537-.037-3.468.16.396-.66.708-1.375.923-2.128zm23.518-14.34a2.735 2.735 0 011.274 2.311 2.74 2.74 0 01-1.274 2.307v-4.612-.006zm-4.137 14.36c.213.736.517 1.436.903 2.085a7.513 7.513 0 00-1.438-.138h-1.987a13.886 13.886 0 002.522-1.946zM82.99 65.546a18.348 18.348 0 008.127-8.49 8.054 8.054 0 011.136 4.154 8.134 8.134 0 01-3.115 6.399H82.99v-2.063zm9.815-15.17c.058-.96.057-7.1 0-8.06a4.276 4.276 0 012.86 4.03 4.277 4.277 0 01-2.86 4.03zm-2.956-8.298c.051.607.19 7.607-.137 9.654-.115.724-.28 1.432-.493 2.12l-.045.134c-2.012 6.274-7.882 10.71-14.668 10.71-2.65 0-5.219-.683-7.459-1.926 0-2.843.008-2.989-.025-3.586a15.474 15.474 0 00-7.918-12.72c0-3.182-.019-3.483.058-4.386 2.922 0 5.858-.703 8.529-2.145a13.51 13.51 0 007.34 2.145h14.818zm-33.753-2.93v-1.762c0-5.028 2.317-9.585 5.988-12.578-.545 1.427-.727 2.864-.654 4.344l.006.084a13.462 13.462 0 003.764 8.654c-3.296 1.443-5.613 1.258-9.104 1.258zm-5.952 9.55c.756 0 1.378-.572 1.456-1.308.077.001.154.007.23.009h.013c6.592.2 11.888 5.441 12.253 11.938l.007.132c.009.194.015.389.015.585v1.832c-6.677 0-8.096.295-9.982-.98a5.728 5.728 0 01-2.528-4.749 1.465 1.465 0 10-2.93 0 5.72 5.72 0 01-2.76 4.899 5.693 5.693 0 01-2.968.83h-6.78v-1.831c0-6.918 5.587-12.585 12.517-12.664.078.735.7 1.308 1.457 1.308zm-7.278-3.053c0-3.04.007-3.317-.022-3.898a4.127 4.127 0 012.606 3.085c-.782.172-1.715.452-2.584.813zM19.381 19.049h13.276a7.27 7.27 0 016.751 4.533c.16.389.477.69.874.829 2.388.83 3.902 3.079 3.68 5.467l-.802 8.68c-21.434 0-21.528.214-23.778-.375-2.866-.754-5.328-2.623-6.847-5.285a11.175 11.175 0 01-1.372-4.087l-.002-.008c-.743-5.72 3.5-9.755 8.22-9.755zM8.195 26.216c-.233 2.32.232 5.01 1.376 7.346a17.788 17.788 0 00-1.795 4.151l-.721-7.807c-.125-1.355.31-2.662 1.14-3.69zM4.42 45.6c0-1.781 1.14-3.29 2.69-3.856-.03.596-.008 7.567 0 7.714a4.119 4.119 0 01-2.69-3.858zm5.597 2.966v-5.932c0-2.125.477-4.313 1.377-6.25a14.01 14.01 0 007.03 4.572c2.541.71 2.413.533 21.469.533.058.762.044.669.044 5.758a15.506 15.506 0 00-6.697 12.806v.926a14.835 14.835 0 01-4.967 2.098c-.061.014-.122.025-.183.037-1.198.246-2.18.306-3.22.306-8.204 0-14.853-6.683-14.853-14.854zm11.292 17.425c.96.195 1.961.315 2.975.348 2.099.068 4.08-.165 6.064-.78v.84l-5.346 3.586-5.347-3.585v-.827a17.568 17.568 0 001.654.418zm13.87 31.08H30.37l-2.976-15.242a1.464 1.464 0 00-.384-.736l-6.563-6.801 4.836 1.202c1.094.271 2.063-.742 1.76-1.818-.005-.021-.009-.043-.016-.065 1.672 2.76 1.24 2.047 2.04 3.365.017.03.035.057.054.085.139.196.247.409.32.63l6.447 19.38h-.711zm34.153 0h-5.52l6.448-19.38c.093-.282-.098.066 2.414-4.08-.362 1.092.623 2.16 1.744 1.882l4.837-1.201-6.564 6.8c-.196.204-.33.46-.384.737l-2.975 15.242zm4.718-8.877l1.05-5.378 7.695-7.975c.554-.573.8-1.406.57-2.245l-.023-.084a2.38 2.38 0 00-.693-1.056c.082-.28.183-.738.215-.918h5.219v17.657H74.049zm21.15 0h-4.187V70.708a5.561 5.561 0 014.187 5.381v12.105z" fill="#000"/><path d="M50.182 78.345c2.466 0 4.473-2.064 4.473-4.6a1.465 1.465 0 10-2.93 0c0 .92-.692 1.67-1.543 1.67-.85 0-1.543-.75-1.543-1.67a1.465 1.465 0 10-2.93 0c0 2.536 2.007 4.6 4.473 4.6zM55.968 71.09c.81 0 1.465-.655 1.465-1.464V69.2a1.466 1.466 0 00-.498-2.843h-.967c-.809 0-1.465.655-1.465 1.465v1.803c0 .809.656 1.465 1.465 1.465zM41.964 67.823c0 .634.403 1.174.967 1.378v.425a1.465 1.465 0 102.93 0v-1.803c0-.81-.656-1.465-1.466-1.465h-.966c-.81 0-1.465.656-1.465 1.465z" fill="#000"/></g><defs><clipPath id="afclip0"><path fill="#fff" d="M0 0h100v100H0z"/></clipPath></defs></svg><svg fill="none" viewBox="0 0 30 30" id="footer__inst" xmlns="http://www.w3.org/2000/svg"><g clip-path="url(#agclip0)" fill="#fff"><path d="M15.005 7.297a7.697 7.697 0 00-7.698 7.698 7.697 7.697 0 007.698 7.697 7.697 7.697 0 007.697-7.697 7.697 7.697 0 00-7.697-7.698zm0 12.694a4.995 4.995 0 01-4.996-4.996 4.995 4.995 0 014.996-4.996A4.995 4.995 0 0120 14.995a4.994 4.994 0 01-4.996 4.996z"/><path d="M21.185.095c-2.76-.129-9.596-.123-12.359 0C6.4.208 4.258.795 2.531 2.52-.354 5.406.015 9.293.015 14.995c0 5.835-.325 9.632 2.516 12.473 2.897 2.895 6.84 2.517 12.474 2.517 5.78 0 7.775.003 9.819-.788 2.778-1.078 4.876-3.562 5.081-8.023.13-2.762.122-9.597 0-12.36-.248-5.266-3.074-8.46-8.72-8.72zm4.369 25.465c-1.891 1.891-4.515 1.722-10.585 1.722-6.25 0-8.756.093-10.585-1.741-2.106-2.096-1.725-5.463-1.725-10.566 0-6.907-.709-11.88 6.222-12.235 1.593-.057 2.062-.075 6.07-.075l.056.037c6.662 0 11.888-.697 12.202 6.233.071 1.581.087 2.056.087 6.058-.001 6.178.117 8.7-1.742 10.567z"/><path d="M23.007 8.793a1.799 1.799 0 100-3.598 1.799 1.799 0 000 3.598z"/></g><defs><clipPath id="agclip0"><path fill="#fff" d="M0 0h30v30H0z"/></clipPath></defs></svg><svg fill="none" viewBox="0 0 30 30" id="footer__mail" xmlns="http://www.w3.org/2000/svg"><path d="M27.363 4.453H2.637A2.64 2.64 0 000 7.09v15.82a2.64 2.64 0 002.637 2.637h24.726A2.64 2.64 0 0030 22.91V7.09a2.64 2.64 0 00-2.637-2.637zm-.369 1.758l-10.13 10.076A2.62 2.62 0 0115 17.06a2.621 2.621 0 01-1.866-.774L3.006 6.211h23.988zM1.758 22.552V7.45l7.596 7.556-7.596 7.547zm1.25 1.237l7.592-7.545 1.293 1.286A4.366 4.366 0 0015 18.817a4.364 4.364 0 003.106-1.285l1.294-1.288 7.593 7.545H3.007zm25.234-1.237l-7.596-7.547 7.596-7.556v15.103z" fill="#fff"/></svg><svg fill="none" viewBox="0 0 30 30" id="footer__phone" xmlns="http://www.w3.org/2000/svg"><g clip-path="url(#aiclip0)" fill="#fff"><path d="M23.71 18.584c-.615-.64-1.356-.981-2.14-.981-.78 0-1.527.335-2.166.975l-2.001 1.994c-.165-.088-.33-.17-.488-.253-.227-.114-.443-.222-.626-.336-1.875-1.19-3.578-2.741-5.211-4.748-.792-1-1.324-1.843-1.71-2.698.52-.475 1-.969 1.469-1.443l.532-.539c1.33-1.33 1.33-3.051 0-4.381L9.64 4.445a26.366 26.366 0 01-.589-.601c-.38-.393-.778-.798-1.19-1.178-.614-.608-1.349-.93-2.121-.93s-1.52.322-2.153.93l-.012.013L1.422 4.85A4.632 4.632 0 00.048 7.795c-.152 1.849.392 3.57.81 4.698 1.026 2.767 2.558 5.331 4.844 8.08 2.773 3.31 6.11 5.926 9.922 7.768 1.456.69 3.4 1.507 5.572 1.646.133.007.272.013.399.013 1.462 0 2.69-.525 3.653-1.57.006-.013.019-.02.025-.032.33-.399.71-.76 1.108-1.146.273-.26.551-.532.823-.817.627-.652.957-1.412.957-2.19 0-.786-.336-1.539-.976-2.172l-3.476-3.489zm2.266 6.667c-.006 0-.006.007 0 0-.247.266-.5.507-.772.773-.412.392-.83.804-1.222 1.266-.64.684-1.393 1.007-2.381 1.007-.095 0-.196 0-.291-.006-1.88-.12-3.628-.855-4.94-1.482-3.583-1.735-6.73-4.198-9.345-7.32-2.159-2.602-3.602-5.008-4.559-7.591-.588-1.577-.804-2.805-.709-3.964.064-.74.349-1.355.874-1.88l2.16-2.16c.31-.29.639-.45.962-.45.399 0 .721.242.924.444l.02.02c.385.36.753.734 1.139 1.132.196.203.399.406.601.615l1.729 1.728c.671.671.671 1.292 0 1.963-.184.184-.361.367-.545.545a33.018 33.018 0 01-1.589 1.544c-.013.013-.025.02-.032.032-.544.545-.443 1.077-.329 1.438l.02.056c.449 1.09 1.082 2.115 2.044 3.337l.007.007c1.747 2.152 3.59 3.83 5.622 5.116.26.164.526.297.779.424.228.114.443.222.627.335.025.013.05.032.076.045.215.107.418.158.627.158.525 0 .854-.33.962-.437l2.166-2.165c.215-.216.557-.475.956-.475.392 0 .715.247.911.462l.013.013 3.489 3.489c.652.645.652 1.31.006 1.981zM16.213 7.136a8.03 8.03 0 014.368 2.267 8.071 8.071 0 012.267 4.369c.07.418.43.709.842.709a.856.856 0 00.848-1 9.766 9.766 0 00-2.74-5.287 9.766 9.766 0 00-5.288-2.742.86.86 0 00-.988.696.846.846 0 00.69.988zM29.965 13.234a16.066 16.066 0 00-4.515-8.706A16.066 16.066 0 0016.744.013a.852.852 0 00-.981.697.859.859 0 00.703.987c2.95.5 5.641 1.9 7.781 4.034a14.344 14.344 0 014.034 7.781c.07.418.43.71.842.71.05 0 .095-.007.145-.013a.839.839 0 00.697-.975z"/></g><defs><clipPath id="aiclip0"><path fill="#fff" d="M0 0h30v30H0z"/></clipPath></defs></svg><svg fill="none" viewBox="0 0 30 30" id="footer__skype" xmlns="http://www.w3.org/2000/svg"><g clip-path="url(#ajclip0)"><path d="M21.914 30a8 8 0 01-4.519-1.38c-4.328.757-8.873-.542-12.173-3.842-3.298-3.299-4.6-7.843-3.842-12.173A8 8 0 010 8.085C0 3.628 3.627 0 8.086 0a8 8 0 014.519 1.38C22.04-.27 30.275 7.925 28.62 17.395a8 8 0 011.38 4.52C30 26.372 26.373 30 21.914 30zm-3.523-3.552a5.685 5.685 0 003.523 1.208 5.749 5.749 0 005.742-5.742c0-1.29-.418-2.508-1.208-3.523a1.171 1.171 0 01-.22-.966c1.756-8.18-5.53-15.397-13.653-13.652a1.172 1.172 0 01-.966-.221 5.684 5.684 0 00-3.523-1.208 5.749 5.749 0 00-5.742 5.742c0 1.29.417 2.508 1.208 3.523.213.274.294.627.22.966-1.752 8.161 5.511 15.401 13.653 13.652.337-.072.691.007.966.221zm2.39-7.991c0-3.165-4-4.132-4.896-4.407-1.854-.569-4.323-1.204-4.323-2.507 0-1.239 1.575-2.285 3.438-2.285 1.483 0 2.834.671 3.287 1.632a1.172 1.172 0 002.12-1C19.485 7.936 17.192 6.915 15 6.915c-3.41 0-5.781 2.217-5.781 4.629 0 3.165 4 4.132 4.896 4.407 1.854.569 4.323 1.204 4.323 2.507 0 1.239-1.575 2.285-3.438 2.285-1.482 0-2.834-.671-3.287-1.632a1.172 1.172 0 00-2.12 1c.922 1.955 3.215 2.976 5.407 2.976 3.41 0 5.781-2.217 5.781-4.629z" fill="#fff"/></g><defs><clipPath id="ajclip0"><path fill="#fff" d="M0 0h30v30H0z"/></clipPath></defs></svg><svg fill="none" viewBox="0 0 30 30" id="footer__vk" xmlns="http://www.w3.org/2000/svg"><g clip-path="url(#akclip0)"><path d="M15.181 24.375c4.34 0 2.793-2.747 3.128-3.538-.005-.59-.01-1.157.01-1.502.275.078.924.406 2.264 1.709 2.068 2.087 2.597 3.331 4.268 3.331h3.076c.976 0 1.483-.404 1.737-.742.245-.328.485-.903.222-1.798-.686-2.155-4.688-5.876-4.937-6.269a3.52 3.52 0 01.128-.219h-.002c.79-1.043 3.805-5.56 4.249-7.368a.023.023 0 00.002-.01c.24-.825.02-1.36-.207-1.663-.343-.452-.888-.681-1.624-.681h-3.076c-1.03 0-1.811.519-2.207 1.465-.66 1.681-2.518 5.139-3.91 6.363a80.033 80.033 0 01.008-4.042c.045-1.918.19-3.786-1.801-3.786h-4.835c-1.248 0-2.441 1.362-1.149 2.98 1.13 1.418.406 2.207.65 6.14-.95-1.019-2.64-3.77-3.835-7.286-.335-.951-.843-1.833-2.271-1.833H1.992C.745 5.626 0 6.306 0 7.445c0 2.557 5.661 16.93 15.181 16.93zM5.07 7.501c.271 0 .298 0 .5.571 1.224 3.604 3.968 8.937 5.974 8.937 1.506 0 1.506-1.544 1.506-2.125l-.002-4.628c-.082-1.531-.64-2.293-1.006-2.756l4.385.005c.003.021-.025 5.119.013 6.354 0 1.754 1.392 2.758 3.566.559 2.294-2.59 3.88-6.46 3.944-6.617.093-.225.175-.301.47-.301h3.088c0 .004 0 .008-.002.011-.281 1.313-3.057 5.495-3.986 6.794-.015.02-.029.041-.043.063-.409.667-.741 1.405.056 2.442h.002c.072.088.261.293.536.578.855.882 3.788 3.9 4.047 5.1-.172.027-.36.007-3.266.013-.618 0-1.102-.925-2.948-2.787-1.66-1.615-2.738-2.275-3.72-2.275-1.904 0-1.765 1.546-1.748 3.416.006 2.027-.006 1.386.008 1.514-.112.044-.43.131-1.262.131C7.25 22.5 2.085 9.911 1.886 7.505c.069-.006 1.015-.002 3.183-.004z" fill="#fff"/></g><defs><clipPath id="akclip0"><path fill="#fff" d="M0 0h30v30H0z"/></clipPath></defs></svg><svg fill="none" viewBox="0 0 100 100" id="girl" xmlns="http://www.w3.org/2000/svg"><g clip-path="url(#alclip0)"><path d="M77.344 77.8V63.198a16.447 16.447 0 00-13.243-16.132l-4.076-.81a7.476 7.476 0 01-5.699-5.165h-8.651a7.476 7.476 0 01-5.699 5.166l-4.076.81a16.447 16.447 0 00-13.243 16.13V77.8h54.687z" fill="#65CCBB"/><path d="M41.842 45.687A9.105 9.105 0 0050 50.744a9.106 9.106 0 008.159-5.058l.029-.05a7.475 7.475 0 01-3.862-4.544h-8.651a7.475 7.475 0 01-3.9 4.562l.067.033z" fill="#FFDCD5"/><path d="M50 41.639c-9.538 0-17.27-7.732-17.27-17.27v-5.146c0-9.538 7.733-17.27 17.27-17.27 9.538 0 17.27 7.732 17.27 17.27v5.146c0 9.538-7.732 17.27-17.27 17.27z" fill="#FFDCD5"/><path d="M33.712 19.964c10.424 0 19.099-7.486 20.942-17.376A17.284 17.284 0 0050 1.953c-9.537 0-17.27 7.732-17.27 17.27v.74h.982z" fill="#6D92AC"/><path d="M66.289 19.964c-10.424 0-19.1-7.486-20.942-17.376A17.285 17.285 0 0150 1.953c9.538 0 17.27 7.732 17.27 17.27v.74h-.981zM17.457 30.574l4.614-1.236-1.236 4.614a10.721 10.721 0 008.709-3.087c3.093-3.093 3.904-7.601 2.44-11.44-3.839-1.464-8.347-.653-11.44 2.44a10.72 10.72 0 00-3.087 8.71zM82.544 30.574l-4.615-1.236 1.237 4.614a10.721 10.721 0 01-8.71-3.087c-3.093-3.093-3.904-7.601-2.439-11.44 3.838-1.464 8.346-.653 11.44 2.44a10.72 10.72 0 013.087 8.71z" fill="#6D92AC"/><path d="M1.998 82.546l13.12-13.12a23.483 23.483 0 0116.605-6.879 16.44 16.44 0 0111.625 4.815h12.809a5.391 5.391 0 010 10.782H41.309h15.244a29.665 29.665 0 0021.863-9.614l9.977-10.879a5.532 5.532 0 118.124 7.512l-12.652 13.57a36.162 36.162 0 01-26.449 11.501h-26.84l-7.813 7.813H1.998V82.546z" fill="#FFD0C7"/><path d="M53.476 32.79a1.953 1.953 0 00-2.762-2.761.944.944 0 01-1.34 0 1.953 1.953 0 00-2.762 2.762 4.821 4.821 0 003.432 1.422 4.822 4.822 0 003.432-1.422zM48.627 88.281H30.575c-.518 0-1.014.206-1.38.572l-7.814 7.813a1.953 1.953 0 002.762 2.762l7.241-7.24h17.243a1.953 1.953 0 000-3.907z" fill="#021C1E"/><path d="M99.924 60.697a7.492 7.492 0 00-3.015-5.334 7.473 7.473 0 00-9.956.968l-7.656 8.348V63.2c0-8.753-6.23-16.343-14.816-18.048l-4.076-.81a5.512 5.512 0 01-3.337-2.096A19.326 19.326 0 0068.025 31.05a12.654 12.654 0 0011.341 4.845 1.953 1.953 0 001.686-2.449l-.36-1.346 1.346.36a1.952 1.952 0 002.448-1.685 12.653 12.653 0 00-3.649-10.291 12.725 12.725 0 00-11.736-3.417C68.026 7.479 59.871 0 50.001 0c-9.872 0-18.027 7.479-19.102 17.067a12.724 12.724 0 00-11.736 3.417 12.653 12.653 0 00-3.649 10.291 1.954 1.954 0 002.448 1.686l1.347-.361-.361 1.346a1.953 1.953 0 001.686 2.449c.443.046.885.068 1.326.068a12.642 12.642 0 0010.016-4.913 19.326 19.326 0 0010.956 11.195 5.512 5.512 0 01-3.336 2.097l-4.077.81c-8.55 1.697-14.762 9.232-14.813 17.939a25.465 25.465 0 00-6.968 4.953L.617 81.164a1.953 1.953 0 002.762 2.763l13.12-13.12A21.388 21.388 0 0131.724 64.5a14.39 14.39 0 0110.244 4.243c.366.367.863.572 1.38.572h12.809a3.442 3.442 0 013.438 3.438 3.442 3.442 0 01-3.438 3.438H41.309a1.953 1.953 0 000 3.906h15.243c8.837 0 17.33-3.735 23.303-10.247l9.977-10.879a3.574 3.574 0 014.76-.462 3.534 3.534 0 011.442 2.55 3.535 3.535 0 01-.946 2.773L82.436 77.4a34.132 34.132 0 01-16.768 9.87 1.953 1.953 0 10.942 3.791 38.029 38.029 0 0018.683-10.997l12.652-13.57a7.492 7.492 0 001.979-5.798zM69.566 20.974a8.813 8.813 0 018.51 2.272 8.75 8.75 0 012.454 4.767l-2.095-.562a1.952 1.952 0 00-2.392 2.392l.561 2.096a8.753 8.753 0 01-4.766-2.455 8.814 8.814 0 01-2.272-8.51zm-4.309-3.054a20.958 20.958 0 01-12.587-5.776 23.101 23.101 0 003.379-6.99c5.066 2.186 8.723 7.03 9.208 12.766zM50 3.906c.779 0 1.544.06 2.292.172-2.277 7.852-9.314 13.47-17.554 13.903C35.373 10.115 41.973 3.906 50 3.906zM28.163 29.484a8.75 8.75 0 01-4.767 2.454l.561-2.095a1.954 1.954 0 00-2.392-2.392l-2.095.561a8.75 8.75 0 012.455-4.766 8.813 8.813 0 018.51-2.272 8.813 8.813 0 01-2.272 8.51zm6.52-5.115v-2.473a23.247 23.247 0 0015.458-6.768 24.879 24.879 0 0015.176 6.718v2.523c0 8.446-6.871 15.317-15.317 15.317-8.445 0-15.316-6.871-15.316-15.317zM50 43.592c1.072 0 2.123-.09 3.148-.26a9.4 9.4 0 002.351 2.88A7.107 7.107 0 0150 48.791c-2.168 0-4.159-.96-5.499-2.579a9.4 9.4 0 002.352-2.88c1.024.17 2.075.26 3.147.26zm6.156 21.817H44.132a18.26 18.26 0 00-12.408-4.815c-2.409 0-4.765.334-7.019.977.702-6.189 5.352-11.352 11.575-12.588l4.077-.81a9.52 9.52 0 00.616-.144A10.988 10.988 0 0050 52.697c3.649 0 6.975-1.753 9.028-4.668.203.054.408.103.616.144l4.077.81c6.762 1.343 11.67 7.322 11.67 14.216v5.603a27.813 27.813 0 01-12.397 6.626c.326-.83.507-1.731.507-2.675 0-4.05-3.295-7.344-7.345-7.344z" fill="#021C1E"/><path d="M57.416 88.281c-.514 0-1.018.21-1.381.572a1.968 1.968 0 00-.572 1.381c0 .514.208 1.018.572 1.381.363.364.867.573 1.38.573.514 0 1.018-.21 1.381-.573.364-.363.573-.867.573-1.38 0-.514-.21-1.018-.573-1.382a1.967 1.967 0 00-1.38-.572z" fill="#021C1E"/></g><defs><clipPath id="alclip0"><path fill="#fff" d="M0 0h100v100H0z"/></clipPath></defs></svg><svg fill="none" viewBox="0 0 51 51" id="headphone" xmlns="http://www.w3.org/2000/svg"><g clip-path="url(#amclip0)"><path d="M28.426 50.741h-3.101a2.704 2.704 0 01-2.7-2.7v-.103c0-1.49 1.21-2.701 2.7-2.701h3.1c1.25 0 2.302.852 2.61 2.005h7.467c4.892 0 8.872-3.98 8.872-8.873v-3.301h-.564v1.843a2.55 2.55 0 01-2.546 2.547H42.15a.748.748 0 01-.703-.494h-.88c-1.078 0-1.956-.835-1.956-1.862V25.206c0-1.026.878-1.862 1.957-1.862h.879a.748.748 0 01.703-.493H44.4c1.328 0 2.41 1.08 2.41 2.41v1.98h.563v-2.37c0-12.485-9.605-22.642-21.412-22.642-11.806 0-21.411 10.157-21.411 22.642v2.37h.563v-1.98c0-1.33 1.08-2.41 2.409-2.41h2.251c.324 0 .6.205.704.493h.878c1.08 0 1.957.835 1.957 1.862v11.896c0 1.027-.878 1.862-1.957 1.862h-.879a.747.747 0 01-.703.494H7.66a2.55 2.55 0 01-2.546-2.547v-1.843h-1.31a.748.748 0 01-.748-.748v-9.449C3.056 11.561 13.332.734 25.962.734c12.63 0 22.907 10.828 22.907 24.137v13.498c0 5.717-4.65 10.367-10.366 10.367h-7.468a2.705 2.705 0 01-2.609 2.005zm-3.101-4.01c-.665 0-1.206.542-1.206 1.206v.104c0 .664.541 1.205 1.206 1.205h3.1c.665 0 1.206-.54 1.206-1.206v-.103c0-.664-.54-1.205-1.205-1.205h-3.101zm17.662-8.769h1.277c.58 0 1.052-.471 1.052-1.051v-11.65a.915.915 0 00-.915-.915h-1.414v13.616zM7.523 24.346a.915.915 0 00-.914.914v11.651c0 .58.472 1.051 1.051 1.051h1.367V24.346H7.523zm33.045.493c-.25 0-.462.168-.462.367v11.896c0 .2.212.367.462.367h.924V24.84h-.924zM10.522 37.47h.835c.25 0 .462-.168.462-.367V25.206c0-.199-.212-.367-.462-.367h-.835v12.63zm36.289-3.897h.563v-4.836h-.563v4.836zm-42.26 0h.563v-4.836h-.563v4.836z" fill="#000"/></g><defs><clipPath id="amclip0"><path fill="#fff" transform="translate(.962 .734)" d="M0 0h50v50.007H0z"/></clipPath></defs></svg><svg fill="none" viewBox="0 0 100 100" id="heart" xmlns="http://www.w3.org/2000/svg"><g clip-path="url(#anclip0)"><path d="M80.957 27.832a5.859 5.859 0 015.86 5.86v29.296h-11.72V33.691a5.859 5.859 0 015.86-5.859z" fill="#FF8A7D"/><path d="M86.816 16.113a5.859 5.859 0 00-5.859 5.86V51.27h11.719V21.973a5.859 5.859 0 00-5.86-5.86z" fill="#FFA786"/><path d="M92.628 10.254a5.82 5.82 0 00-2.419.545l-2.568 54.869-4.73 22.125 14.48-25.522a8.79 8.79 0 001.144-4.337V16.238c0-3.25-2.658-6.01-5.907-5.984z" fill="#FFA786"/><path d="M92.676 16.113v42.629c0 1-.171 1.994-.506 2.937l-9.26 26.114 2.93 10.742H52.947v-5.86l6.33-19.251 27.54-22.155V16.114a5.854 5.854 0 013.392-5.314c1.457.93 2.467 2.96 2.467 5.314z" fill="#FFC38F"/><path d="M76.815 47.126a5.857 5.857 0 018.285 0 5.835 5.835 0 011.717 4.143c0 1.5-.572 3-1.717 4.142L64.666 75.849v5.109c0 6.445-5.274 11.719-11.72 11.719V75.862c0-3.237 1.306-6.172 3.425-8.293l20.444-20.443z" fill="#FFEAB0"/><path d="M19.043 27.832a5.859 5.859 0 00-5.86 5.86v29.296h11.72V33.691a5.859 5.859 0 00-5.86-5.859z" fill="#FF8A7D"/><path d="M13.184 16.113a5.859 5.859 0 00-5.86 5.86V51.27h11.719V21.973a5.859 5.859 0 00-5.86-5.86zM47.053 92.676v5.86h-5.86l-11.718-23.49 17.578 17.63z" fill="#FFA786"/><path d="M43.63 67.569L23.185 47.126a5.84 5.84 0 00-4.539-1.703l22.547 45.673a11.623 11.623 0 005.859 1.58V75.862c0-3.237-1.305-6.172-3.424-8.293z" fill="#FFC38F"/><path d="M39.746 74.414L13.184 51.269V16.236c0-3.193-2.504-5.892-5.696-5.979a5.86 5.86 0 00-6.023 5.857v41.821c0 1.52.394 3.015 1.145 4.337l14.48 25.522-2.93 10.742h27.034v-7.44l-1.448-16.681z" fill="#FFC38F"/><path d="M41.194 75.862v15.234c-3.496-2.034-5.86-5.825-5.86-10.139v-5.109L14.9 55.411a5.835 5.835 0 01-1.717-4.142c0-1.5.572-3 1.717-4.143a5.83 5.83 0 013.746-1.703c1.127.092 2.234.66 3.096 1.703L38.366 67.57c1.752 2.12 2.828 5.056 2.828 8.293z" fill="#FFEAB0"/><path d="M60.45 1.465c-.466 0-.925.024-1.38.067L50 47.363l20.807-20.845a14.644 14.644 0 004.29-10.378c0-8.105-6.558-14.675-14.648-14.675z" fill="#57BA98"/><path d="M69.238 16.14c0-7.637-4.464-13.91-10.167-14.608A14.592 14.592 0 0050 5.859a14.587 14.587 0 00-10.45-4.394c-8.09 0-14.648 6.57-14.648 14.675 0 4.053 1.64 7.722 4.29 10.378L50 47.363l15.95-20.845c2.031-2.656 3.288-6.325 3.288-10.378z" fill="#65CCB8"/><path d="M76.563 16.14C76.563 7.24 69.334 0 60.448 0 56.572 0 52.913 1.36 50 3.855A15.956 15.956 0 0039.55 0c-8.884 0-16.112 7.24-16.112 16.14 0 4.311 1.675 8.364 4.718 11.412l20.807 20.846a1.464 1.464 0 002.074 0l20.807-20.846a16.05 16.05 0 004.719-11.412zM50 45.29L30.23 25.483a13.138 13.138 0 01-3.863-9.343c0-7.284 5.914-13.21 13.184-13.21 3.563 0 6.902 1.404 9.403 3.955a1.465 1.465 0 002.092 0c2.5-2.55 5.84-3.955 9.403-3.955 7.27 0 13.184 5.926 13.184 13.21 0 3.53-1.372 6.848-3.862 9.343L50 45.29zM24.308 46.177a7.462 7.462 0 00-3.8-2.036V29.549a4.401 4.401 0 012.93 4.142v7.456a1.465 1.465 0 002.93 0V33.69c0-3.537-2.521-6.496-5.86-7.176v-4.542c0-3.588-2.594-6.58-6.005-7.203-.666-3.317-3.54-5.884-6.974-5.978a7.269 7.269 0 00-5.312 2.071A7.268 7.268 0 000 16.113v41.821c0 1.77.462 3.52 1.336 5.06L15.518 87.99l-2.771 10.16A1.465 1.465 0 0014.16 100h32.893c.81 0 1.465-.656 1.465-1.465V75.862c0-3.53-1.369-6.843-3.854-9.329L24.308 46.177zm-6.73-24.204v22.153a7.181 7.181 0 00-2.93 1.286V17.83a4.401 4.401 0 012.93 4.143zm28.01 75.097h-29.51l2.425-8.892a1.465 1.465 0 00-.139-1.108L3.884 61.55a7.339 7.339 0 01-.954-3.615v-41.82a4.36 4.36 0 011.33-3.15A4.364 4.364 0 017.45 11.72c2.354.064 4.27 2.09 4.27 4.514v35.132a7.262 7.262 0 002.145 5.082L34.3 76.883a1.465 1.465 0 102.071-2.071L15.936 54.377a4.36 4.36 0 01-1.288-3.092v-.028-.049a4.364 4.364 0 011.377-3.133c1.71-1.62 4.497-1.542 6.212.173l20.356 20.356a10.193 10.193 0 012.995 7.258V97.07zM97.783 10.864a7.265 7.265 0 00-5.312-2.072c-3.434.094-6.308 2.661-6.974 5.978-3.411.623-6.005 3.615-6.005 7.203v4.542c-3.34.68-5.86 3.64-5.86 7.176v7.456a1.465 1.465 0 002.93 0V33.69a4.401 4.401 0 012.93-4.142V44.14a7.462 7.462 0 00-3.8 2.037L55.335 66.533a13.102 13.102 0 00-3.853 9.329v22.673c0 .81.656 1.465 1.465 1.465H85.84a1.465 1.465 0 001.413-1.85l-2.771-10.16 14.182-24.996a10.274 10.274 0 001.335-5.06v-41.82a7.266 7.266 0 00-2.216-5.25zM82.422 21.973a4.401 4.401 0 012.93-4.143v27.581a7.178 7.178 0 00-2.93-1.286V21.973zM97.07 57.934c0 1.265-.33 2.515-.954 3.615L81.636 87.07c-.191.337-.241.735-.14 1.108l2.426 8.892h-29.51V75.862c0-2.748 1.063-5.325 2.995-7.257l20.356-20.357c1.715-1.714 4.501-1.791 6.212-.173a4.364 4.364 0 011.376 3.134v.076a4.36 4.36 0 01-1.287 3.092L63.63 74.812a1.465 1.465 0 102.071 2.071l20.435-20.434a7.263 7.263 0 002.145-5.082V16.235c0-2.425 1.915-4.45 4.27-4.514a4.363 4.363 0 013.189 1.242 4.36 4.36 0 011.33 3.15v41.821z" fill="#021C1E"/></g><defs><clipPath id="anclip0"><path fill="#fff" d="M0 0h100v100H0z"/></clipPath></defs></svg><svg viewBox="0 0 111.577 111.577" id="info" xmlns="http://www.w3.org/2000/svg"><path d="M78.962 99.536l-1.559 6.373c-4.677 1.846-8.413 3.251-11.195 4.217-2.785.969-6.021 1.451-9.708 1.451-5.662 0-10.066-1.387-13.207-4.142-3.141-2.766-4.712-6.271-4.712-10.523 0-1.646.114-3.339.351-5.064.239-1.727.619-3.672 1.139-5.846l5.845-20.688c.52-1.981.962-3.858 1.316-5.633.359-1.764.532-3.387.532-4.848 0-2.642-.547-4.49-1.636-5.529-1.089-1.036-3.167-1.562-6.252-1.562-1.511 0-3.064.242-4.647.71-1.59.47-2.949.924-4.09 1.346l1.563-6.378c3.829-1.559 7.489-2.894 10.99-4.002 3.501-1.111 6.809-1.667 9.938-1.667 5.623 0 9.962 1.359 13.009 4.077 3.047 2.72 4.57 6.246 4.57 10.591 0 .899-.1 2.483-.315 4.747-.21 2.269-.601 4.348-1.171 6.239l-5.82 20.605c-.477 1.655-.906 3.547-1.279 5.676-.385 2.115-.569 3.731-.569 4.815 0 2.736.61 4.604 1.833 5.597 1.232.993 3.354 1.487 6.368 1.487 1.415 0 3.025-.251 4.814-.744 1.784-.493 3.085-.926 3.892-1.305zm1.476-86.506c0 3.59-1.353 6.656-4.072 9.177-2.712 2.53-5.98 3.796-9.803 3.796-3.835 0-7.111-1.266-9.854-3.796-2.738-2.522-4.11-5.587-4.11-9.177 0-3.583 1.372-6.654 4.11-9.207C59.447 1.274 62.729 0 66.563 0c3.822 0 7.091 1.277 9.803 3.823 2.721 2.553 4.072 5.625 4.072 9.207z"/></svg><svg fill="none" viewBox="0 0 120 181" id="number-five" xmlns="http://www.w3.org/2000/svg"><path d="M59.244 180.563c-10.823 0-20.752-1.993-29.785-5.981-8.952-4.069-16.073-9.847-21.362-17.334-5.29-7.487-7.813-16.439-7.569-26.855l.244-.611 34.18-1.709c0 7.894 2.238 14.079 6.714 18.555 4.476 4.394 10.335 6.592 17.578 6.592 8.3 0 14.445-2.971 18.433-8.911 3.987-5.941 5.981-13.632 5.981-23.072 0-10.254-2.116-18.473-6.347-24.658-4.232-6.185-10.54-9.277-18.921-9.277-6.755 0-11.963 1.261-15.625 3.784-3.581 2.523-6.145 5.94-7.69 10.254L3.58 99.265l10.254-99h102.295v40.528H94.156L90.982 28.83H43.131l-5.005 41.016c2.197-1.628 4.72-3.052 7.568-4.273 2.849-1.302 5.9-2.32 9.156-3.051 3.336-.814 6.876-1.221 10.62-1.221 11.393-.163 21.077 2.116 29.052 6.836 8.057 4.72 14.161 11.556 18.311 20.507 4.232 8.952 6.348 19.735 6.348 32.349 0 11.393-2.32 21.607-6.958 30.64-4.558 8.952-11.312 16.032-20.264 21.24-8.87 5.127-19.775 7.69-32.715 7.69z" fill="#69B98F" fill-opacity=".15"/></svg><svg fill="none" viewBox="0 0 131 178" id="number-four" xmlns="http://www.w3.org/2000/svg"><path d="M55.38 178v-21.362l19.043-3.662V135.52H1.913L.204 118.063 74.057.266h35.888v111.572h20.142v23.682h-20.142v17.456l18.921 3.662V178H55.38zm-21.973-66.162h41.016V47.751l-.733-.244-2.93 5.127-37.353 59.204z" fill="#69B98F" fill-opacity=".15"/></svg><svg fill="none" viewBox="0 0 97 178" id="number-one" xmlns="http://www.w3.org/2000/svg"><path d="M1.137 178v-21.362l30.029-3.662V32.614H.771V12.23L66.689.266v152.71l30.029 3.662V178H1.137z" fill="#69B98F" fill-opacity=".15"/></svg><svg fill="none" viewBox="0 0 124 184" id="number-three" xmlns="http://www.w3.org/2000/svg"><path d="M61.256 183.563c-11.312 0-21.607-1.993-30.884-5.981-9.277-3.988-16.642-9.766-22.095-17.334-5.37-7.65-7.934-16.886-7.69-27.71l.244-.732h34.546c0 4.72 1.058 8.911 3.174 12.573 2.116 3.662 5.086 6.551 8.91 8.667 3.907 2.116 8.505 3.174 13.795 3.174 8.22 0 14.689-2.279 19.409-6.836 4.801-4.639 7.202-11.068 7.202-19.287 0-8.301-2.36-14.771-7.08-19.409-4.72-4.639-11.84-6.959-21.362-6.959H40.138V76.996h20.02c5.696 0 10.375-.977 14.037-2.93 3.662-2.034 6.389-4.882 8.179-8.544 1.79-3.663 2.686-7.976 2.686-12.94 0-7.568-2.035-13.51-6.104-17.822-4.069-4.395-9.969-6.592-17.7-6.592-4.639 0-8.748.936-12.33 2.808-3.58 1.79-6.388 4.353-8.422 7.69-1.953 3.337-2.93 7.202-2.93 11.597H3.028l-.244-.733C2.54 40.09 4.86 31.708 9.742 24.384c4.883-7.406 11.76-13.184 20.63-17.334C39.324 2.818 49.537.702 61.012.702c17.985 0 32.43 4.395 43.335 13.184 10.905 8.707 16.357 21.077 16.357 37.11 0 8.3-2.319 15.787-6.958 22.46-4.557 6.673-11.393 12.126-20.508 16.358 9.847 3.499 17.334 8.87 22.461 16.113 5.209 7.243 7.813 15.665 7.813 25.268 0 10.824-2.686 20.142-8.057 27.954-5.371 7.813-12.777 13.835-22.217 18.067-9.358 4.232-20.02 6.347-31.982 6.347z" fill="#69B98F" fill-opacity=".15"/></svg><svg fill="none" viewBox="0 0 125 181" id="number-two" xmlns="http://www.w3.org/2000/svg"><path d="M3.063 181v-23.315l57.618-61.89c5.859-6.592 10.457-12.33 13.794-17.212 3.336-4.883 5.696-9.318 7.08-13.306 1.464-4.069 2.197-8.097 2.197-12.085 0-6.917-1.994-12.776-5.981-17.578-3.907-4.801-9.685-7.202-17.334-7.202-8.22 0-14.445 2.686-18.677 8.057-4.232 5.29-6.348 12.614-6.348 21.972H.744L.5 57.71c-.244-10.742 2.035-20.386 6.836-28.93 4.883-8.627 11.881-15.463 20.996-20.508C37.528 3.225 48.352.702 60.802.702 73.01.702 83.468 2.9 92.176 7.294c8.789 4.313 15.543 10.376 20.263 18.188 4.721 7.813 7.081 16.846 7.081 27.1 0 7.08-1.262 13.753-3.785 20.02-2.522 6.184-6.469 12.736-11.84 19.653-5.372 6.917-12.289 14.852-20.752 23.804l-34.546 37.109.244.61h46.02l1.831-16.967h27.588V181H3.063z" fill="#69B98F" fill-opacity=".15"/></svg><svg fill="none" viewBox="0 0 25 25" id="phone" xmlns="http://www.w3.org/2000/svg"><g clip-path="url(#auclip0)" fill="#6FB98F"><path d="M10.352 14.646C7.966 12.26 7.427 9.874 7.306 8.918a.857.857 0 01.246-.717l1.93-1.93a.862.862 0 00.122-1.067L6.53.431A.862.862 0 005.413.117L.477 2.44a.857.857 0 00-.474.856c.259 2.457 1.33 8.496 7.265 14.43 5.935 5.935 11.974 7.006 14.432 7.264a.857.857 0 00.857-.474l2.325-4.935a.862.862 0 00-.313-1.114l-4.774-3.074a.862.862 0 00-1.067.12l-1.93 1.932a.857.857 0 01-.717.246c-.956-.122-3.343-.66-5.729-3.046z"/><path d="M19.828 13.36a.862.862 0 01-.862-.861A6.472 6.472 0 0012.5 6.034a.862.862 0 110-1.724 8.198 8.198 0 018.19 8.189.862.862 0 01-.862.862z"/><path d="M24.138 13.36a.862.862 0 01-.862-.862C23.27 6.55 18.45 1.731 12.5 1.724A.862.862 0 1112.5 0C19.4.008 24.993 5.599 25 12.498a.862.862 0 01-.862.862z"/></g><defs><clipPath id="auclip0"><path fill="#fff" d="M0 0h25v24.996H0z"/></clipPath></defs></svg><svg fill="none" viewBox="0 0 41 39" id="quote-left" xmlns="http://www.w3.org/2000/svg"><path d="M11.203 19.438l11.25 18.703h-8.719L.61 19.859v-.89L13.734.687h8.72l-11.25 18.75zm18.047 0L40.5 38.14h-8.719L18.656 19.859v-.89L31.781.687H40.5l-11.25 18.75z" fill="#021C1E"/></svg><svg fill="none" viewBox="0 0 42 39" id="quote-right" xmlns="http://www.w3.org/2000/svg"><path d="M9.75.734l13.125 18.282v.89L9.75 38.188H.984l11.25-18.704L.984.734H9.75zm18.422 0l13.125 18.282v.89L28.172 38.188h-8.766l11.25-18.704L19.406.734h8.766z" fill="#021C1E"/></svg><svg fill="none" viewBox="0 0 100 100" id="scared" xmlns="http://www.w3.org/2000/svg"><path d="M90.259 52.758c2.052 2.052 1.226 5.549-1.528 6.467l-5.917 1.908 2.093 4.773a3.906 3.906 0 01-1.877 5.303l-1.681.764.656.656a3.905 3.905 0 010 5.523l-1.145 1.145a7.813 7.813 0 01-7.812 7.812h-7.813c-5.392 0-9.765 5.545-9.765 10.938H24.22C28.126 70.703 8.595 64.453 8.595 37.109c0-19.416 15.74-35.156 35.156-35.156 19.416 0 35.156 15.74 35.156 35.156 0 2.502.994 4.9 2.762 6.668l8.59 8.98z" fill="#FCE8D0"/><path d="M43.751 56.64c10.787 0 19.531-8.744 19.531-19.53 0-10.787-8.744-19.532-19.531-19.532-10.787 0-19.531 8.745-19.531 19.531 0 10.787 8.744 19.532 19.531 19.532z" fill="#65CCBB"/><path d="M43.751 58.594c11.846 0 21.484-9.638 21.484-21.485 0-11.846-9.638-21.484-21.484-21.484-11.846 0-21.484 9.638-21.484 21.484 0 11.847 9.637 21.485 21.484 21.485zm0-39.063c9.693 0 17.578 7.886 17.578 17.578 0 9.693-7.885 17.578-17.578 17.578S26.173 46.803 26.173 37.11c0-9.692 7.885-17.578 17.578-17.578z" fill="#021C1E"/><path d="M46.784 32.997l3.906 1.953a1.953 1.953 0 101.747-3.494l-.413-.206.413-.206a1.953 1.953 0 00-1.747-3.494l-3.906 1.953a1.953 1.953 0 000 3.494zM34.191 34.077a1.953 1.953 0 002.62.873l3.907-1.953a1.953 1.953 0 000-3.494l-3.906-1.953a1.953 1.953 0 10-1.747 3.494l.412.206-.412.207a1.953 1.953 0 00-.873 2.62zM33.985 42.969h.018c.183.1.549.684.767 1.035.672 1.074 1.795 2.871 4.098 2.871s3.427-1.797 4.098-2.871c.221-.355.592-.948.76-1.034l.025-.001h.018c.183.1.548.684.767 1.035.671 1.074 1.795 2.871 4.098 2.871s3.426-1.797 4.097-2.871c.222-.355.593-.948.76-1.034l.026-.001a1.953 1.953 0 000-3.907c-2.303 0-3.427 1.798-4.098 2.872-.221.354-.592.948-.76 1.033 0 0-.008.002-.025.002h-.018c-.183-.1-.548-.685-.767-1.035-.672-1.074-1.795-2.871-4.098-2.871s-3.427 1.797-4.098 2.87c-.221.355-.592.949-.76 1.034 0 0-.008.002-.025.002h-.017c-.184-.1-.549-.685-.768-1.035-.671-1.074-1.794-2.871-4.098-2.871a1.953 1.953 0 000 3.906zM18.946 14.258a1.953 1.953 0 100-3.906 1.953 1.953 0 000 3.906z" fill="#021C1E"/><path d="M83.05 42.396a7.428 7.428 0 01-2.19-5.287C80.86 16.647 64.213 0 43.751 0A37.07 37.07 0 0024.84 5.174a1.953 1.953 0 001.993 3.36 33.163 33.163 0 0116.918-4.628c18.308 0 33.203 14.895 33.203 33.203 0 3.034 1.178 5.886 3.318 8.034l8.606 8.996c.694.694.594 1.51.519 1.829-.075.318-.351 1.093-1.265 1.398l-5.918 1.908a1.953 1.953 0 00-1.19 2.643c1.553 3.54 2.102 4.794 2.136 4.863.24.479.273 1.02.094 1.525a1.934 1.934 0 01-1.031 1.126l-1.682.763a1.953 1.953 0 00-.573 3.16l.656.656c.761.761.761 2 0 2.761l-1.145 1.145a1.954 1.954 0 00-.572 1.38c0 3.231-2.628 5.86-5.86 5.86h-7.812c-5.885 0-10.651 5.231-11.561 10.938H26.426c1.403-13.808-3.18-22.509-7.62-30.937-4.06-7.708-8.258-15.678-8.258-28.048 0-5.966 1.6-11.816 4.627-16.917a1.953 1.953 0 00-3.36-1.994 37.07 37.07 0 00-5.173 18.911c0 13.336 4.427 21.74 8.708 29.869 4.586 8.705 8.917 16.928 6.936 30.793A1.953 1.953 0 0024.22 100h31.25a1.953 1.953 0 001.953-1.953c0-4.155 3.413-8.984 7.813-8.984h7.812c5.1 0 9.3-3.93 9.73-8.92l.608-.61a5.87 5.87 0 001.05-6.858 5.801 5.801 0 002.501-3.066 5.81 5.81 0 00-.259-4.528l-1.207-2.753 3.878-1.25a5.821 5.821 0 003.85-4.213 5.82 5.82 0 00-1.542-5.471l-8.607-8.998z" fill="#021C1E"/></svg><svg fill="none" viewBox="0 0 50 51" id="smartphone" xmlns="http://www.w3.org/2000/svg"><g clip-path="url(#ayclip0)" fill="#000"><path d="M39.402 2.194l-.053-.067A4.726 4.726 0 0035.987.734H13.984a4.755 4.755 0 00-4.74 4.741v40.51a4.732 4.732 0 001.392 3.363c.89.894 2.1 1.396 3.363 1.393H36a4.73 4.73 0 003.363-1.388 4.732 4.732 0 001.392-3.363V5.48a4.728 4.728 0 00-1.354-3.286zm-.485 43.792c0 .773-.307 1.515-.855 2.06a2.906 2.906 0 01-2.06.855H13.983a2.906 2.906 0 01-2.06-.855 2.911 2.911 0 01-.86-2.06V5.48a2.93 2.93 0 012.92-2.92h22.017a2.91 2.91 0 012.06.86l.044.038c.525.542.817 1.267.817 2.022l-.005 40.506z"/><path d="M24.993 47.513a1.282 1.282 0 100-2.565 1.282 1.282 0 000 2.565zM36.727 6.454h-.01a3.996 3.996 0 00-2.829-1.177H16.117a3.996 3.996 0 00-2.825 1.177 3.998 3.998 0 00-1.176 2.83V39.47c0 1.062.424 2.08 1.177 2.83a3.996 3.996 0 002.829 1.176h17.77a3.996 3.996 0 002.777-1.124l.058-.053a3.997 3.997 0 001.176-2.83V9.28a3.997 3.997 0 00-1.176-2.825zm-1.302 34.559l-.038.043a2.17 2.17 0 01-1.504.6H16.112c-.579.001-1.134-.229-1.542-.639a2.176 2.176 0 01-.643-1.542V9.28a2.172 2.172 0 01.638-1.542c.409-.41.963-.64 1.542-.639H33.88a2.17 2.17 0 011.541.639c.41.408.64.963.639 1.542l.01 30.192c-.001.579-.233 1.134-.644 1.542z"/></g><defs><clipPath id="ayclip0"><path fill="#fff" transform="translate(0 .734)" d="M0 0h50v50.007H0z"/></clipPath></defs></svg><svg fill="none" viewBox="0 0 51 51" id="smile" xmlns="http://www.w3.org/2000/svg"><g clip-path="url(#azclip0)" fill="#000"><path d="M25.981.734c-13.785 0-25 11.216-25 25.004 0 13.787 11.215 25.003 25 25.003s25-11.216 25-25.003S39.766.733 25.981.733zm0 47.304c-6.125 0-11.68-2.483-15.714-6.494a22.423 22.423 0 01-4.043-5.477 22.166 22.166 0 01-2.54-10.33c0-12.296 10.002-22.3 22.297-22.3a22.21 22.21 0 0115.124 5.93 22.417 22.417 0 014.993 6.758 22.17 22.17 0 012.18 9.613c0 12.296-10.002 22.3-22.297 22.3z"/><path d="M17.436 20.061c1.452 0 2.634 1.114 2.634 2.635h2.703c0-3.04-2.394-5.338-5.337-5.338-2.944 0-5.338 2.297-5.338 5.338h2.703c0-1.52 1.182-2.635 2.635-2.635zM34.526 20.061c1.453 0 2.635 1.114 2.635 2.635h2.703c0-3.04-2.395-5.338-5.338-5.338s-5.337 2.297-5.337 5.338h2.703c0-1.52 1.182-2.635 2.634-2.635zM25.933 39.59c5.23 0 10.24-2.674 13.11-7.114l-2.27-1.467c-2.635 4.077-7.456 6.353-12.28 5.796-3.76-.434-7.238-2.6-9.303-5.796l-2.27 1.467c2.498 3.867 6.709 6.489 11.263 7.014.584.068 1.168.1 1.75.1z"/></g><defs><clipPath id="azclip0"><path fill="#fff" transform="translate(.981 .734)" d="M0 0h50v50.007H0z"/></clipPath></defs></svg><svg fill="none" viewBox="0 0 51 51" id="speech-bubble" xmlns="http://www.w3.org/2000/svg"><g clip-path="url(#baclip0)" fill="#000"><path d="M25.783 13.04a.977.977 0 10.001 1.955.977.977 0 000-1.954zM9.572 30.62a.977.977 0 100-1.953.977.977 0 000 1.954z"/><path d="M33.596 3.273c-8.792 0-16.008 6.062-16.566 13.699C8.657 17.392.783 23.43.783 31.597c0 3.413 1.35 6.72 3.809 9.34a5.94 5.94 0 01-1.57 5.597.977.977 0 00.69 1.667c2.786 0 5.47-1.092 7.464-3.017 1.943.663 4.478 1.064 6.795 1.064 8.79 0 16.005-6.06 16.565-13.696 2.045-.09 4.171-.468 5.854-1.042a10.771 10.771 0 007.463 3.018.976.976 0 00.691-1.668 5.94 5.94 0 01-1.57-5.596c2.459-2.62 3.81-5.927 3.81-9.34 0-8.487-8.481-14.651-17.188-14.651zM17.97 44.295c-2.305 0-4.932-.453-6.69-1.153a.976.976 0 00-1.083.248 8.811 8.811 0 01-4.382 2.601 7.9 7.9 0 00.595-5.813.975.975 0 00-.239-.413c-2.215-2.282-3.436-5.183-3.436-8.168 0-6.882 6.977-12.697 15.235-12.697 7.798 0 14.648 5.424 14.648 12.697 0 7.002-6.571 12.698-14.648 12.698zM45.394 26.09a.978.978 0 00-.239.413 7.9 7.9 0 00.596 5.813 8.809 8.809 0 01-4.383-2.6.977.977 0 00-1.082-.249c-1.524.607-3.7 1.027-5.753 1.128-.285-3.693-2.127-7.165-5.277-9.742h12.738a.977.977 0 100-1.954H26.256c-2.217-1.128-4.706-1.786-7.268-1.925.561-6.56 6.899-11.749 14.608-11.749 8.258 0 15.234 5.815 15.234 12.698 0 2.984-1.22 5.885-3.436 8.167z"/><path d="M25.783 28.668H13.478a.976.976 0 100 1.953h12.305a.977.977 0 100-1.953zM25.783 34.528H9.573a.977.977 0 100 1.953h16.21a.977.977 0 100-1.953zM41.994 13.04H29.69a.977.977 0 100 1.954h12.305a.977.977 0 100-1.954z"/></g><defs><clipPath id="baclip0"><path fill="#fff" transform="translate(.783 .734)" d="M0 0h50v50.007H0z"/></clipPath></defs></svg><svg fill="none" viewBox="0 0 100 100" id="think" xmlns="http://www.w3.org/2000/svg"><path d="M76.656 61.822a29.492 29.492 0 00-2.279 15.246 57.283 57.283 0 002 9.984 32.66 32.66 0 001.951 4.918 42.66 42.66 0 012.623 4.639l-41.147.115v-.017c-.132-.491-2.607-10.13-8.083-12.606-1.016.36-2.098.721-3.196 1.098a110.956 110.956 0 01-11.099 3.213 4.22 4.22 0 01-3.049-.426 5.153 5.153 0 01-2.213-2.836 8.169 8.169 0 01-.459-3.656c.378-1.264.506-2.589.377-3.901-.426-1.656-2-2.066-3.262-2.951-1-.722.82-3.033.82-3.033s-1.935-1.426-2.623-2.05c-.722-.59.295-1.606 1.196-3.524.372-.833.481-1.76.312-2.656-.344-1.754-3.017-2.426-4.312-3.393-.623-.459-1.623-1.147-1.737-1.984-.18-1.163 1.196-2.803 1.868-3.623a64.478 64.478 0 007.312-11.885 3.38 3.38 0 00.459-1.459c-.033-2.344-3.426-3.311-3.738-5.59-.049-.669.07-1.34.345-1.95a50.027 50.027 0 002.426-6.197 49.414 49.414 0 011.557-5.738 29.964 29.964 0 016.23-10.164c4.016-4.246 9.95-6.344 15.557-7.46a109.293 109.293 0 0115.131-2.212c.164-.017.328-.017.492-.033 10.492-.525 18.787 3.033 26.918 9.393a25.54 25.54 0 019.23 13.263 47.674 47.674 0 011.655 13.442 23.569 23.569 0 01-3.77 12.623c-2.443 3.853-5.656 7.197-7.492 11.41z" fill="#FFC38F"/><path d="M71.738 61.822a29.492 29.492 0 00-2.279 15.246 57.281 57.281 0 002 9.984 32.666 32.666 0 001.951 4.918c.97 1.49 1.846 3.04 2.623 4.639l-36.23.098c-.13-.491-2.606-10.13-8.081-12.606-1.017.36-2.099.721-3.197 1.098a7.453 7.453 0 00-1.721-1.098c-3.951 1.377-8.771 2.967-12.427 3.885a5.153 5.153 0 01-2.213-2.836 8.169 8.169 0 01-.459-3.656c.378-1.263.506-2.589.377-3.901-.426-1.656-2-2.066-3.262-2.951-1-.721.82-3.033.82-3.033s-1.935-1.426-2.623-2.05c-.722-.59.295-1.606 1.196-3.524.372-.833.481-1.76.312-2.655-.344-1.755-3.017-2.427-4.312-3.394-.623-.459-1.623-1.147-1.737-1.984-.18-1.163 1.196-2.803 1.868-3.623a64.479 64.479 0 007.312-11.885c.262-.445.42-.944.459-1.459-.033-2.344-3.426-3.311-3.738-5.59-.049-.669.07-1.34.345-1.95a50.027 50.027 0 002.426-6.197 49.42 49.42 0 011.557-5.738 29.964 29.964 0 016.23-10.164c4.016-4.246 9.95-6.344 15.557-7.46a109.293 109.293 0 0115.131-2.212c8.46.524 15.541 3.918 22.492 9.36a25.539 25.539 0 019.23 13.263A47.674 47.674 0 0183 37.789a23.57 23.57 0 01-3.77 12.623c-2.443 3.853-5.656 7.197-7.492 11.41z" fill="#FFEAB0"/><path d="M97.541 19.773v3.082a1.311 1.311 0 01-1.05 1.295l-4.688.934a13.64 13.64 0 01-1.426 3.41l2.672 3.984a1.34 1.34 0 01-.18 1.656l-2.18 2.18a1.34 1.34 0 01-1.656.18l-3.984-2.672c-.196.115-.41.23-.623.344-.885.465-1.82.828-2.787 1.082l-.278 1.443-4.115.82a17.469 17.469 0 01-1.311 3.41 1.257 1.257 0 01-.902-.984l-.934-4.689a13.632 13.632 0 01-3.41-1.426l-3.984 2.672a1.34 1.34 0 01-1.656-.18l-2.18-2.18a1.34 1.34 0 01-.18-1.656l2.672-3.984a13.636 13.636 0 01-1.427-3.41l-4.688-.934a1.311 1.311 0 01-1.05-1.295v-3.082a1.311 1.311 0 011.05-1.295l4.688-.935c.188-.728.446-1.436.771-2.114.186-.448.405-.88.656-1.295l-1.508-2.246-1.164-1.738a1.356 1.356 0 01.114-1.59l.066-.066 2.18-2.18a1.34 1.34 0 011.656-.18l3.984 2.672a13.636 13.636 0 013.41-1.427l.934-4.688a1.312 1.312 0 011.295-1.05h3.082a1.312 1.312 0 011.295 1.05l.934 4.688c1.197.319 2.344.799 3.41 1.427l3.984-2.672a1.34 1.34 0 011.656.18l2.18 2.18a1.34 1.34 0 01.18 1.656l-2.672 3.984a13.64 13.64 0 011.426 3.41l4.689.934a1.311 1.311 0 011.05 1.295z" fill="#65CCBB"/><path d="M97.54 19.773v3.082a1.311 1.311 0 01-1.048 1.295l-4.689.934a13.632 13.632 0 01-1.426 3.41l2.672 3.984a1.34 1.34 0 01-.18 1.655l-2.18 2.18a1.34 1.34 0 01-1.656.181l-2.066-1.377.984-.983a1.34 1.34 0 00.18-1.656l-2.672-3.984a13.636 13.636 0 001.426-3.41l4.689-.934a1.311 1.311 0 001.049-1.295v-3.082a1.311 1.311 0 00-1.05-1.295l-4.688-.935a13.636 13.636 0 00-1.426-3.41l2.672-3.983a1.34 1.34 0 00-.18-1.656l-.984-.983 2.066-1.377a1.34 1.34 0 011.656.18l2.18 2.18a1.34 1.34 0 01.18 1.656l-2.672 3.983a13.632 13.632 0 011.426 3.41l4.689.935a1.311 1.311 0 011.049 1.295z" fill="#00838F"/><path d="M86.066 21.314a8.197 8.197 0 01-8.197 8.197 8.746 8.746 0 01-2.46-.361 8.22 8.22 0 010-15.672 8.746 8.746 0 012.46-.36 8.197 8.197 0 018.197 8.196z" fill="#FFA786"/><path d="M75.41 29.15c3.169 0 5.738-3.508 5.738-7.836s-2.57-7.836-5.738-7.836c-3.169 0-5.738 3.508-5.738 7.836s2.57 7.836 5.738 7.836z" fill="#FFC38F"/><path d="M84.426 30.855v3.869c0 .779-.548 1.45-1.311 1.606l-1.754.36-4.115.82a17.465 17.465 0 01-1.311 3.41 14.07 14.07 0 01-.46.853l3.329 4.967a1.64 1.64 0 01-.214 2.066l-2.737 2.737a1.64 1.64 0 01-2.066.214l-4.967-3.328a17.729 17.729 0 01-4.262 1.77l-1.18 5.869a1.64 1.64 0 01-1.607 1.312H57.9a1.64 1.64 0 01-1.606-1.312l-1.18-5.869a17.729 17.729 0 01-4.262-1.77l-4.968 3.328a1.64 1.64 0 01-2.065-.214l-2.738-2.737a1.64 1.64 0 01-.213-2.066l3.328-4.967a17.725 17.725 0 01-1.77-4.262l-5.87-1.18a1.64 1.64 0 01-1.31-1.607v-3.87c-.001-.778.547-1.45 1.31-1.606l5.87-1.18a17.725 17.725 0 011.77-4.262l-3.328-4.968a1.64 1.64 0 01.213-2.065l2.738-2.738a1.64 1.64 0 012.065-.213l4.968 3.328a17.729 17.729 0 014.262-1.77l1.18-5.87a1.64 1.64 0 011.607-1.31h3.869a1.624 1.624 0 011.606 1.31l.476 2.378.705 3.492.147.049c1.44.392 2.824.971 4.115 1.721l4.967-3.328a1.64 1.64 0 012.066.213l2.737 2.738a1.64 1.64 0 01.213 2.066l-3.327 4.967a17.725 17.725 0 011.77 4.262l5.869 1.18a1.64 1.64 0 011.311 1.607z" fill="#65CCBB"/><path d="M84.427 30.855v3.869c0 .779-.549 1.45-1.312 1.606l-1.754.361-2.967.59-1.148.23a17.468 17.468 0 01-1.311 3.41c-.148.295-.295.573-.46.852l3.329 4.967a1.64 1.64 0 01-.214 2.066l-2.737 2.737a1.64 1.64 0 01-2.066.214l-1.836-1.23 1.721-1.721a1.64 1.64 0 00.213-2.066l-3.327-4.967c.164-.279.311-.557.459-.853.555-1.087.994-2.23 1.311-3.41l4.115-.819 1.754-.36a1.64 1.64 0 001.311-1.607v-3.87c0-.778-.548-1.45-1.311-1.606l-5.869-1.18a17.729 17.729 0 00-1.77-4.262l3.327-4.968a1.64 1.64 0 00-.213-2.065l-1.72-1.721 1.835-1.23a1.64 1.64 0 012.066.213l2.737 2.738a1.64 1.64 0 01.213 2.066l-3.327 4.967a17.729 17.729 0 011.77 4.262l5.869 1.18a1.64 1.64 0 011.312 1.607z" fill="#3B9" fill-opacity=".267"/><path d="M59.836 42.625c5.432 0 9.836-4.403 9.836-9.836 0-5.432-4.404-9.836-9.836-9.836S50 27.357 50 32.79c0 5.433 4.404 9.836 9.836 9.836z" fill="#FFC38F"/><path d="M16.416 90.166a6.143 6.143 0 01-5.798-4.465 9.636 9.636 0 01-.554-4.417c.06-.436.154-.86.25-1.287.208-.64.27-1.318.181-1.985-.131-.51-.508-.765-1.475-1.311a12.66 12.66 0 01-1.148-.713 2.365 2.365 0 01-.962-1.607 4.131 4.131 0 01.534-2.365c-.559-.428-1.17-.91-1.524-1.23-1.515-1.24-.512-3.015.09-4.074.22-.39.477-.84.721-1.365.226-.52.29-1.096.185-1.653-.083-.426-1.27-1.033-1.98-1.395-.593-.28-1.162-.61-1.702-.983a5.023 5.023 0 01-2.383-3.089c-.26-1.688.983-3.375 2.172-4.823a63.28 63.28 0 007.174-11.657 2.78 2.78 0 00.279-.712c0-.452-.537-.97-1.34-1.706a6.303 6.303 0 01-2.398-3.65c-.08-.94.073-1.885.446-2.752.295-.775.628-1.521.96-2.267a21.234 21.234 0 001.407-3.738 47.93 47.93 0 011.615-5.925 31.354 31.354 0 016.577-10.726c3.665-3.875 9.037-6.474 16.43-7.942A109.424 109.424 0 0150.027.053c1.9-.098 3.804-.06 5.698.113a1.646 1.646 0 11-.305 3.279 35.886 35.886 0 00-5.221-.111 106.53 106.53 0 00-15.38 2.21c-6.617 1.31-11.558 3.662-14.695 6.978a28.106 28.106 0 00-5.882 9.612 43.945 43.945 0 00-1.476 5.422 24.067 24.067 0 01-1.64 4.445c-.307.69-.617 1.379-.884 2.08a3.22 3.22 0 00-.266 1.166c.07.492.698 1.057 1.362 1.667a5.738 5.738 0 012.405 4.098 4.872 4.872 0 01-.63 2.217 66.14 66.14 0 01-7.5 12.183c-1.248 1.525-1.516 2.131-1.516 2.376.303.294.633.561.984.796.428.299.88.561 1.35.786 1.4.714 3.316 1.695 3.707 3.695a6.12 6.12 0 01-.436 3.667c-.285.608-.58 1.133-.837 1.585-.08.141-.164.299-.248.441.68.548 1.608 1.243 2 1.531a1.64 1.64 0 01.31 2.336 6.036 6.036 0 00-.633 1.017l.36.2a5.433 5.433 0 013.022 3.342 7.155 7.155 0 01-.164 3.53c-.075.328-.152.67-.2 1.006-.086.987.053 1.98.405 2.905a2.92 2.92 0 003.377 2.182 127.662 127.662 0 0014.089-4.262 1.64 1.64 0 011.077 3.098 128.937 128.937 0 01-14.504 4.37c-.44.096-.89.147-1.34.153zM8.056 68.3l.05.046-.05-.046z" fill="#021C1E"/><path d="M19.169 28.99l-3.202-.71a41.677 41.677 0 011.346-5.002 24.853 24.853 0 015.194-8.502c2.662-2.806 7.027-4.84 12.977-6.023a1.64 1.64 0 11.637 3.217c-5.269 1.047-9.047 2.75-11.232 5.059a21.597 21.597 0 00-4.499 7.377 39.191 39.191 0 00-1.221 4.583zM39.803 98.363a1.64 1.64 0 01-1.591-1.25c-.638-2.59-3.164-9.71-7.166-11.519a1.64 1.64 0 01.148-3.046c1.705-.578 3.249-1.12 4.467-1.544 1.147-.398 1.998-.698 2.444-.84 6.815-2.171 8.197-4.627 8.158-6.304a1.64 1.64 0 011.606-1.677 1.61 1.61 0 011.677 1.6c.097 4.069-3.415 7.265-10.434 9.508-.43.138-1.26.428-2.363.82l-1.475.513a26.144 26.144 0 015.769 10.46l37.184-.103-.11-.164a17.931 17.931 0 01-1.27-2.131 34.192 34.192 0 01-2.035-5.143 58.184 58.184 0 01-2.063-10.272 31.014 31.014 0 012.404-16.098 39.619 39.619 0 014.824-7.68c.951-1.282 1.935-2.607 2.787-3.953a22.133 22.133 0 002.951-6.967 1.64 1.64 0 013.194.74 25.357 25.357 0 01-3.378 7.984c-.916 1.445-1.936 2.82-2.92 4.148a36.646 36.646 0 00-4.453 7.038 27.754 27.754 0 00-2.154 14.395 55.247 55.247 0 001.939 9.698 31.208 31.208 0 001.85 4.667c.314.614.67 1.206 1.063 1.77a12.663 12.663 0 011.66 3.116 1.639 1.639 0 01-1.56 2.13l-41.148.116-.005-.012z" fill="#021C1E"/><path d="M61.77 59.019h-3.869a3.279 3.279 0 01-3.216-2.635l-.983-4.898a19.511 19.511 0 01-2.761-1.147l-4.143 2.778a3.289 3.289 0 01-4.154-.431l-2.721-2.721a3.279 3.279 0 01-.428-4.118l2.787-4.163a19.513 19.513 0 01-1.148-2.76l-4.905-.984a3.279 3.279 0 01-2.623-3.216v-3.87a3.279 3.279 0 012.635-3.215l4.898-.984c.312-.948.695-1.871 1.148-2.76l-2.779-4.143a3.279 3.279 0 01.433-4.156l2.72-2.72a3.279 3.279 0 014.118-.428l4.162 2.787c.89-.452 1.812-.836 2.76-1.147l.984-4.905a3.279 3.279 0 013.216-2.623h3.87a3.279 3.279 0 013.216 2.634l.983 4.899c.949.311 1.871.695 2.761 1.147l4.143-2.779a3.279 3.279 0 014.155.433l2.72 2.72a3.279 3.279 0 01.428 4.118l-2.787 4.162c.453.89.836 1.813 1.148 2.76l4.904.985a3.279 3.279 0 012.624 3.216v3.869a3.279 3.279 0 01-2.635 3.216l-4.898.984a19.513 19.513 0 01-1.148 2.76l2.779 4.143a3.279 3.279 0 01-.433 4.156l-2.72 2.72a3.279 3.279 0 01-4.118.427l-4.162-2.787c-.89.453-1.812.837-2.76 1.148l-.984 4.905a3.279 3.279 0 01-3.217 2.623zm-10.918-12.23c.288 0 .571.077.82.222a16.15 16.15 0 003.87 1.606c.6.163 1.057.65 1.18 1.26l1.18 5.863h3.868l1.18-5.864a1.64 1.64 0 011.178-1.259 16.153 16.153 0 003.87-1.606 1.64 1.64 0 011.735.055l4.965 3.328 2.733-2.747-3.318-4.961a1.64 1.64 0 01-.056-1.734 16.149 16.149 0 001.607-3.87 1.64 1.64 0 011.259-1.18l5.864-1.178v-3.87l-5.864-1.18a1.64 1.64 0 01-1.26-1.178 16.149 16.149 0 00-1.606-3.87 1.64 1.64 0 01.056-1.735l3.328-4.966-2.748-2.73-4.96 3.317a1.64 1.64 0 01-1.735.056 16.152 16.152 0 00-3.87-1.607 1.64 1.64 0 01-1.179-1.259L61.77 9.838h-3.869l-1.18 5.864a1.64 1.64 0 01-1.178 1.26 16.149 16.149 0 00-3.871 1.606 1.64 1.64 0 01-1.734-.056l-4.966-3.328-2.733 2.748 3.318 4.96c.348.52.37 1.194.056 1.735a16.155 16.155 0 00-1.607 3.87 1.64 1.64 0 01-1.259 1.18l-5.862 1.178v3.869l5.864 1.178a1.64 1.64 0 011.26 1.18 16.149 16.149 0 001.606 3.87 1.64 1.64 0 01-.056 1.734l-3.328 4.966 2.748 2.732 4.96-3.318c.27-.18.588-.276.913-.277z" fill="#021C1E"/><path d="M89.754 38.343c-.563 0-1.115-.16-1.592-.46l-3.205-2.143a1.64 1.64 0 01-1.345-2.974l.69-.396a1.64 1.64 0 011.66.096l3.748 2.515 1.82-1.82-2.514-3.754a1.64 1.64 0 01-.047-1.75c.552-.939.974-1.948 1.254-3a1.64 1.64 0 011.262-1.18l4.427-.881v-2.564l-4.419-.88a1.64 1.64 0 01-1.262-1.18 11.992 11.992 0 00-1.254-3 1.64 1.64 0 01.04-1.752l2.514-3.747-1.82-1.82-3.749 2.513a1.64 1.64 0 01-1.75.048 11.993 11.993 0 00-3-1.254 1.64 1.64 0 01-1.18-1.262L79.15 3.28h-2.564l-.88 4.426a1.64 1.64 0 01-1.18 1.263 11.99 11.99 0 00-3 1.254 1.64 1.64 0 01-1.752-.058l-3.747-2.513-1.984 1.984a1.688 1.688 0 01-2.359.04 1.588 1.588 0 01-.046-2.276l2.246-2.246a2.966 2.966 0 013.686-.41l3.206 2.143a15.173 15.173 0 011.905-.795l.743-3.727A2.95 2.95 0 0176.328.002h3.082a2.95 2.95 0 012.905 2.386l.74 3.71c.653.221 1.29.486 1.906.793l3.159-2.118a2.975 2.975 0 013.728.382l2.18 2.18a2.962 2.962 0 01.41 3.686l-2.143 3.201c.308.616.574 1.253.795 1.905l3.727.743a2.95 2.95 0 012.363 2.903v3.082a2.95 2.95 0 01-2.385 2.907l-3.71.739a15.41 15.41 0 01-.793 1.905l2.118 3.159a2.977 2.977 0 01-.382 3.728l-2.18 2.18a2.951 2.951 0 01-2.094.87zM59.836 44.265c-6.337 0-11.475-5.138-11.475-11.476 0-6.337 5.138-11.475 11.475-11.475 6.338 0 11.476 5.138 11.476 11.475-.008 6.335-5.141 11.468-11.476 11.476zm0-19.672a8.197 8.197 0 108.197 8.196 8.207 8.207 0 00-8.197-8.197z" fill="#021C1E"/><path d="M59.836 34.429a1.64 1.64 0 100-3.28 1.64 1.64 0 000 3.28zM81.328 30.478a1.64 1.64 0 01-.648-3.146 6.557 6.557 0 00-2.598-12.575 6.21 6.21 0 00-2.193.385 1.64 1.64 0 01-1.148-3.067c1.069-.399 2.2-.6 3.341-.597a9.836 9.836 0 013.885 18.867c-.202.087-.42.132-.639.133zM15.574 36.068a1.64 1.64 0 100-3.279 1.64 1.64 0 000 3.279z" fill="#021C1E"/></svg><svg fill="none" viewBox="0 0 50 51" id="verify" xmlns="http://www.w3.org/2000/svg"><g clip-path="url(#bcclip0)" fill="#000"><path d="M36.458 50.741c-7.466 0-13.541-6.075-13.541-13.543 0-7.468 6.074-13.544 13.541-13.544C43.925 23.654 50 29.73 50 37.198c0 7.468-6.075 13.543-13.542 13.543zm0-25.003C30.14 25.738 25 30.88 25 37.198c0 6.317 5.14 11.46 11.458 11.46 6.319 0 11.459-5.143 11.459-11.46 0-6.318-5.14-11.46-11.459-11.46z"/><path d="M34.375 42.407c-.275 0-.541-.11-.737-.304l-4.167-4.168a1.043 1.043 0 011.473-1.473l3.379 3.38 6.558-7.497a1.04 1.04 0 011.471-.098 1.04 1.04 0 01.098 1.469l-7.292 8.334a1.05 1.05 0 01-.75.357h-.033zM19.792 44.49H5.208A5.215 5.215 0 010 39.28V12.194a5.215 5.215 0 015.208-5.209h4.167a1.042 1.042 0 010 2.084H5.208a3.13 3.13 0 00-3.125 3.125v27.088a3.129 3.129 0 003.125 3.125h14.584a1.042 1.042 0 010 2.084zM34.375 19.486a1.042 1.042 0 01-1.042-1.042v-6.25a3.13 3.13 0 00-3.125-3.126h-4.166a1.042 1.042 0 010-2.084h4.166a5.215 5.215 0 015.209 5.21v6.25c0 .575-.467 1.042-1.042 1.042z"/><path d="M23.959 13.236h-12.5a3.129 3.129 0 01-3.125-3.125V5.943c0-.575.466-1.041 1.041-1.041h3.23A5.218 5.218 0 0117.708.734a5.218 5.218 0 015.104 4.168h3.229c.575 0 1.041.466 1.041 1.041v4.168a3.129 3.129 0 01-3.124 3.125zm-13.542-6.25v3.125c0 .573.466 1.041 1.042 1.041h12.5c.575 0 1.041-.468 1.041-1.041V6.985h-3.125a1.042 1.042 0 01-1.041-1.042 3.129 3.129 0 00-3.125-3.125 3.129 3.129 0 00-3.125 3.125c0 .576-.467 1.042-1.042 1.042h-3.125zM28.125 19.487H7.292a1.042 1.042 0 010-2.084h20.833a1.042 1.042 0 010 2.084zM21.875 25.738H7.292a1.042 1.042 0 010-2.084h14.583a1.042 1.042 0 010 2.084zM17.708 31.988H7.292a1.042 1.042 0 010-2.083h10.416a1.042 1.042 0 010 2.083z"/></g><defs><clipPath id="bcclip0"><path fill="#fff" transform="translate(0 .734)" d="M0 0h50v50.007H0z"/></clipPath></defs></svg><svg fill="none" viewBox="0 0 1920 84" id="wave" xmlns="http://www.w3.org/2000/svg"><path d="M0 57S287.926 4.773 552 .332C809.359-3.996 1070.11 58.414 1327.5 58c232.39-.374 593-49.5 593-49.5V84H0V57z" fill="#fff"/></svg><svg viewBox="0 0 52.966 52.966" id="zoom" xmlns="http://www.w3.org/2000/svg"><path d="M28.983 20h-6v-6a1 1 0 00-2 0v6h-6a1 1 0 000 2h6v6a1 1 0 002 0v-6h6a1 1 0 000-2z"/><path d="M51.704 51.273L36.845 35.82c3.79-3.801 6.138-9.041 6.138-14.82 0-11.58-9.42-21-21-21s-21 9.42-21 21 9.42 21 21 21c5.083 0 9.748-1.817 13.384-4.832l14.895 15.491a.998.998 0 001.414.028 1 1 0 00.028-1.414zM2.983 21c0-10.477 8.523-19 19-19s19 8.523 19 19-8.523 19-19 19-19-8.523-19-19z"/></svg></svg>