<svg style="position:absolute;top:0;left:0;width:1px;height:1px;visibility:hidden;opacity:0;" aria-hidden="true" xmlns="http://www.w3.org/2000/svg" xmlns:xlink="http://www.w3.org/1999/xlink"><symbol fill="none" viewBox="0 0 144 205" id="hall__a" xmlns="http://www.w3.org/2000/svg"><path d="M68.79 2.148h27.62v32.846l1.421.075 44.471 2.334-.835 163.323L1.66 203.084v-8.235l63.118-.784 1.462-.019.02-1.461L68.79 2.148z" fill="var(--primary-color)" stroke="#1F2D2E" stroke-width="3" stroke-linecap="round"/></symbol><symbol fill="none" viewBox="0 0 289 113" id="hall__b" xmlns="http://www.w3.org/2000/svg"><path d="M128.241 110.098l-126.39.667.826-106.213 94.761-.778V8.116l.97.367 7.53 2.845V41.37l.371.424 15.888 18.169 3.321 16.472.043.213.102.192 4.889 9.239-2.311 24.02zm156.231-.121l-130.549.67-2.397-27.928 6.643-2.79.966-.405-.048-1.046-.818-17.759 16.471-14.782.45-.404.044-.602 2.457-33.265 7.238-.684.764-.072.388-.661 3.824-6.501 97.048-1.567-2.481 107.796z" fill="var(--primary-color)" stroke="#1F2D2E" stroke-width="3" stroke-linecap="round"/></symbol><symbol fill="none" viewBox="0 0 291 113" id="hall__c" xmlns="http://www.w3.org/2000/svg"><path d="M3.265 111.211L2.438 1.822h99.375l1.378 4.555.263.871.894.169 7.377 1.394 2.457 30.177.035.431.26.347 14.15 18.872V75.776l.633.449 6.187 4.384.737 27.857-132.919 2.745zm284.335-3.158l-128.773 2.051V78.692l3.833-.603 1.204-.19.061-1.216.823-16.322 16.632-18.07.397-.43V9.851h9.888l.272-1.157 1.43-6.08 95.886-.78-1.653 106.218z" fill="var(--primary-color)" stroke="#1F2D2E" stroke-width="3" stroke-linecap="round"/></symbol><symbol fill="none" viewBox="0 0 145 204" id="hall__d" xmlns="http://www.w3.org/2000/svg"><path d="M142.793 195.027v6.692H2.151l.834-165.603 43.531.776 1.527.027V2.363h29.32l2.53 188.832.02 1.424 1.422.054 61.458 2.354z" fill="var(--primary-color)" stroke="#1F2D2E" stroke-width="3" stroke-linecap="round"/></symbol><symbol fill="none" viewBox="0 0 513 99" id="hall__dance" xmlns="http://www.w3.org/2000/svg"><path d="M3.005 94.988l-1.48-92.8 505.456-.611 4.447 95.242L3.005 94.988z" fill="var(--primary-color)" stroke="#1F2D2E" stroke-width="3"/></symbol><symbol fill="none" viewBox="0 0 297 83" id="hall__e" xmlns="http://www.w3.org/2000/svg"><path d="M181.138.14l110.5.803.85 73.073-99.45-.803-1.7-6.423-12.75-.803-.85 5.62-62.05 1.606V66.79h-12.75l-1.7 6.423H6.888l-2.55-40.15h119v8.03h11.9v24.894l20.4 2.409V42.698l20.4-16.862 5.1-25.697z" fill="var(--primary-color)"/><path d="M176.443 70.14l-59.255 1.534V65.29h-15.404l-.296 1.117-1.404 5.307H8.296l-2.36-37.15h115.902V42.593h11.9V67.32l1.324.156 20.4 2.41 1.676.197V43.405l19.856-16.412.412-.34.104-.524 4.858-24.48 107.788.784.815 70.071-96.775-.781-1.408-5.317-.276-1.046-1.079-.067-12.75-.803-1.372-.087-.206 1.36-.662 4.377z" stroke="#1F2D2E" stroke-width="3" stroke-linecap="round"/></symbol><symbol fill="none" viewBox="0 0 291 78" id="hall__f" xmlns="http://www.w3.org/2000/svg"><path d="M286.163 75.573h-90.596v-5.391l-1.254-.21-14.45-2.409-1.746-.29v8.3h-59.9v-5.621h-13.2v5.61l-103.216-.78L3.433 3.08l108.514-.782 2.426 26.73.065.723.608.397 21.421 14.01v26.327l1.441.057 20.4.803 1.673.066-.118-1.67-1.632-23.125 10.719-5.787 119.563-.79-2.35 35.534z" fill="var(--primary-color)" stroke="#1F2D2E" stroke-width="3" stroke-linecap="round"/></symbol><symbol fill="none" viewBox="0 0 234 31" id="hall__g" xmlns="http://www.w3.org/2000/svg"><path d="M225.387 24.105h6.15v5.03H2.487v-5.03h10.2V1.633l211.2 1.583v20.89h1.5z" fill="var(--primary-color)" stroke="#1F2D2E" stroke-width="3" stroke-linecap="round"/></symbol><symbol fill="none" viewBox="0 0 400 38" id="hall__scene" xmlns="http://www.w3.org/2000/svg"><path d="M386.813 29.5H398.5v7H1.5v-7h17.582V1.508l366.231 1.984V29.5h1.5z" fill="var(--primary-color)" stroke="#1F2D2E" stroke-width="3" stroke-linecap="round"/></symbol><symbol fill="none" viewBox="0 0 20 20" id="more__global" xmlns="http://www.w3.org/2000/svg"><path d="M10 0C4.477 0 0 4.477 0 10s4.477 10 10 10 10-4.477 10-10C19.994 4.48 15.52.006 10 0zm8.649 13.503l-2.844.491c.325-1.194.501-2.424.523-3.66h2.997a9.273 9.273 0 0 1-.676 3.17zM.675 10.333h2.997c.022 1.237.198 2.467.523 3.661l-2.844-.49a9.272 9.272 0 0 1-.676-3.17zm.676-3.836l2.844-.491a14.923 14.923 0 0 0-.523 3.66H.675a9.271 9.271 0 0 1 .676-3.17zm8.982-1.145a22.93 22.93 0 0 1 3.574.326l1.176.203c.362 1.23.556 2.504.579 3.786h-5.329V5.352zm3.687-.33a23.626 23.626 0 0 0-3.687-.337v-4c1.911.184 3.571 1.934 4.512 4.48l-.825-.144zm-4.353-.337a23.624 23.624 0 0 0-3.687.336l-.825.143c.94-2.547 2.6-4.297 4.512-4.48v4.001zm-3.573.993a22.925 22.925 0 0 1 3.573-.326v4.315H4.338c.023-1.282.217-2.556.579-3.786l1.177-.203zm-1.756 4.655h5.329v4.315a22.917 22.917 0 0 1-3.574-.326l-1.176-.203a14.309 14.309 0 0 1-.579-3.786zM5.98 14.98a23.71 23.71 0 0 0 3.687.337v4c-1.911-.183-3.571-1.933-4.512-4.48l.825.143zm4.353.337a23.706 23.706 0 0 0 3.687-.337l.825-.143c-.94 2.547-2.6 4.297-4.512 4.48v-4zm3.573-.994c-1.18.202-2.375.31-3.573.326v-4.315h5.329a14.309 14.309 0 0 1-.579 3.786l-1.177.203zm2.422-4.655a14.925 14.925 0 0 0-.523-3.661l2.844.49a9.272 9.272 0 0 1 .676 3.17h-2.997zm1.983-3.905l-2.726-.47a9.192 9.192 0 0 0-2.652-4.15 9.378 9.378 0 0 1 5.378 4.62zM7.067 1.142a9.192 9.192 0 0 0-2.652 4.15l-2.726.47a9.378 9.378 0 0 1 5.378-4.62zM1.689 14.238l2.726.47a9.192 9.192 0 0 0 2.652 4.15 9.378 9.378 0 0 1-5.378-4.62zm11.244 4.62a9.192 9.192 0 0 0 2.652-4.15l2.726-.47a9.378 9.378 0 0 1-5.378 4.62z" fill="#121515"/></symbol><symbol fill="none" viewBox="0 0 20 22" id="more__instagram" xmlns="http://www.w3.org/2000/svg"><path d="M14.19 0H5.81C2.606 0 0 2.867 0 6.39v9.22C0 19.132 2.606 22 5.81 22h8.38c3.204 0 5.81-2.867 5.81-6.39V6.39C20 2.868 17.394 0 14.19 0zm4.248 15.61c0 2.575-1.906 4.671-4.248 4.671H5.81c-2.342 0-4.247-2.096-4.247-4.672V6.391c0-2.576 1.905-4.672 4.247-4.672h8.38c2.342 0 4.248 2.096 4.248 4.672v9.218z" fill="#121515"/><path d="M10 5.07c-2.972 0-5.39 2.66-5.39 5.93 0 3.27 2.418 5.93 5.39 5.93 2.972 0 5.39-2.66 5.39-5.93 0-3.27-2.418-5.93-5.39-5.93zm0 10.14c-2.11 0-3.828-1.888-3.828-4.21S7.889 6.79 10 6.79c2.11 0 3.828 1.888 3.828 4.21S12.111 15.21 10 15.21zM15.469 5.844c.431 0 .781-.385.781-.86 0-.474-.35-.859-.781-.859-.432 0-.781.385-.781.86 0 .474.35.859.78.859z" fill="#121515"/></symbol><symbol fill="none" viewBox="0 0 20 18" id="more__twitter" xmlns="http://www.w3.org/2000/svg"><path d="M19.717 2.01a7.2 7.2 0 0 1-2.236.66c.842-.555 1.411-1.339 1.708-2.352a7.217 7.217 0 0 1-2.465 1.03C15.954.45 15.009 0 13.886 0c-1.073 0-1.99.416-2.747 1.25-.757.832-1.136 1.839-1.136 3.02 0 .317.032.643.096.978a10.069 10.069 0 0 1-4.466-1.315A11.285 11.285 0 0 1 2.093.78c-.353.66-.53 1.38-.53 2.155 0 .731.157 1.41.47 2.036a4.146 4.146 0 0 0 1.262 1.52 3.593 3.593 0 0 1-1.756-.542v.053c0 1.03.295 1.936.884 2.716.59.78 1.333 1.272 2.23 1.474a3.678 3.678 0 0 1-1.022.146c-.224 0-.469-.022-.733-.066a4.191 4.191 0 0 0 1.37 2.108c.666.551 1.419.835 2.26.853-1.41 1.216-3.017 1.824-4.82 1.824-.345 0-.657-.017-.938-.053 1.803 1.278 3.791 1.917 5.963 1.917 1.379 0 2.673-.24 3.883-.72s2.244-1.124 3.102-1.93a12.63 12.63 0 0 0 2.218-2.783 13.018 13.018 0 0 0 1.389-3.285 13.263 13.263 0 0 0 .444-3.986 8.62 8.62 0 0 0 1.948-2.208z" fill="#121515"/></symbol><symbol fill="none" viewBox="0 0 20 15" id="more__vk" xmlns="http://www.w3.org/2000/svg"><g clip-path="url(#mclip0)"><path d="M19.894 12.882a1.878 1.878 0 0 0-.068-.163c-.347-.781-1.01-1.74-1.989-2.877l-.02-.026-.01-.013-.011-.013h-.01c-.445-.53-.726-.885-.844-1.067-.216-.347-.264-.699-.146-1.055.083-.269.396-.837.937-1.705.285-.46.51-.828.677-1.106 1.201-1.996 1.722-3.272 1.562-3.827L19.91.9c-.042-.078-.15-.15-.323-.215-.174-.065-.396-.075-.666-.032l-3 .026c-.048-.022-.117-.02-.208.006l-.135.04-.052.032-.042.04a.526.526 0 0 0-.114.136.972.972 0 0 0-.104.228 23.955 23.955 0 0 1-1.114 2.928 29.506 29.506 0 0 1-.709 1.4 6.75 6.75 0 0 1-.541.872 4.233 4.233 0 0 1-.396.449c-.118.113-.208.16-.27.143a6.403 6.403 0 0 1-.178-.052.824.824 0 0 1-.234-.32 1.699 1.699 0 0 1-.12-.507 6.925 6.925 0 0 1-.036-.527 13.6 13.6 0 0 1 .005-.625c.007-.269.01-.451.01-.547 0-.33.006-.687.016-1.073l.026-.918c.007-.226.01-.464.01-.716 0-.252-.012-.449-.036-.592a2.397 2.397 0 0 0-.109-.417.682.682 0 0 0-.213-.312 1.083 1.083 0 0 0-.35-.176c-.367-.104-.836-.16-1.405-.17C8.33-.014 7.502.09 7.133.315a1.504 1.504 0 0 0-.396.39c-.125.192-.142.296-.052.313.417.078.712.265.885.56l.063.156c.049.113.097.313.146.599.048.286.08.603.093.95.035.633.035 1.176 0 1.627-.034.451-.067.803-.098 1.054a2.523 2.523 0 0 1-.266.898.206.206 0 0 1-.052.065.644.644 0 0 1-.281.066c-.098 0-.216-.061-.354-.183a2.822 2.822 0 0 1-.432-.5 6.896 6.896 0 0 1-.506-.893A17.125 17.125 0 0 1 5.3 4.063l-.166-.378a36.222 36.222 0 0 1-.427-1.06c-.18-.465-.34-.914-.48-1.348a.865.865 0 0 0-.249-.416L3.926.82A.941.941 0 0 0 3.52.626L.667.652C.375.652.177.735.073.9L.031.978A.512.512 0 0 0 0 1.186c0 .095.02.213.063.351.416 1.224.869 2.404 1.358 3.54.49 1.138.915 2.053 1.276 2.747.36.694.729 1.35 1.104 1.966.375.616.623 1.01.744 1.184.122.174.217.304.287.39l.26.313c.167.208.411.458.734.748.323.291.68.577 1.073.86.392.282.848.511 1.37.69.52.177 1.027.249 1.52.214h1.197c.243-.026.427-.121.552-.286l.041-.065a.987.987 0 0 0 .078-.24c.025-.11.037-.229.037-.359-.007-.373.015-.71.067-1.008.052-.3.111-.525.178-.677.066-.152.14-.28.223-.384a.988.988 0 0 1 .178-.189.626.626 0 0 1 .083-.045c.166-.07.362-.003.588.201.226.204.438.456.636.755.197.3.435.636.713 1.01.278.372.52.65.729.832l.208.156c.139.105.32.2.542.287.221.087.416.108.583.065l2.665-.052c.264 0 .469-.055.614-.163.146-.108.233-.228.26-.358.029-.13.03-.277.006-.443a1.964 1.964 0 0 0-.073-.344z" fill="#121515"/></g><defs><clipPath id="mclip0"><path fill="#fff" d="M0 0h20v15H0z"/></clipPath></defs></symbol><symbol viewBox="0 0 5120 5120" id="nav__burger" xmlns="http://www.w3.org/2000/svg"><g fill="var(--primary-color, #c4c4c4)"><path d="M93 4334c-62-37-93-95-93-174 0-80 31-138 94-175l43-25h4846l43 25c63 37 94 95 94 175s-31 138-94 175l-43 25H135l-42-26zM93 2734c-62-37-93-95-93-174 0-80 31-138 94-175l43-25h4846l43 25c63 37 94 95 94 175s-31 138-94 175l-43 25H135l-42-26zM93 1134c-62-37-93-95-93-174 0-80 31-138 94-175l43-25h4846l43 25c63 37 94 95 94 175s-31 138-94 175l-43 25H135l-42-26z"/></g></symbol><symbol viewBox="0 0 5120 5120" id="nav__cancel" xmlns="http://www.w3.org/2000/svg"><path d="M325 5097c-72-35-286-255-310-319-22-60-17-185 9-238 10-19 455-473 989-1007l972-973-972-972C259 833 36 605 21 570c-30-66-29-179 3-245C58 253 278 39 342 15c60-22 185-17 238 9 19 10 473 455 1007 989l973 972 972-972c535-534 989-979 1008-989 22-11 66-19 115-22 122-7 154 11 307 166 149 151 163 179 156 299-3 46-12 92-22 113-10 19-455 473-989 1008l-972 972 972 973c534 534 979 988 989 1007 10 21 19 67 22 113 7 120-7 148-156 299-153 155-185 173-307 166-49-3-93-11-115-22-19-10-473-455-1007-989l-973-972-973 972c-534 534-988 979-1007 989-23 11-64 19-120 21-74 4-91 1-135-20z" fill="var(--primary-color, #c4c4c4)"/></symbol></svg>