<svg style="position:absolute;top:0;left:0;width:1px;height:1px;visibility:hidden;opacity:0;" aria-hidden="true" xmlns="http://www.w3.org/2000/svg" xmlns:xlink="http://www.w3.org/1999/xlink"><symbol fill="none" viewBox="0 0 50 46" id="carousel__arrow-l" xmlns="http://www.w3.org/2000/svg"><path d="M5.232 20.768a2.5 2.5 0 0 1 0-3.536l15.91-15.91a2.5 2.5 0 0 1 3.536 3.536L10.535 19l14.143 14.142a2.5 2.5 0 0 1-3.536 3.536l-15.91-15.91zM46 21.5H7v-5h39v5z" fill="var(--primary-color, #C4A7DA)"/></symbol><symbol fill="none" viewBox="0 0 50 46" id="carousel__arrow-r" xmlns="http://www.w3.org/2000/svg"><path d="M44.768 20.768a2.5 2.5 0 0 0 0-3.536l-15.91-15.91a2.5 2.5 0 0 0-3.536 3.536L39.465 19 25.322 33.142a2.5 2.5 0 0 0 3.536 3.536l15.91-15.91zM4 21.5h39v-5H4v5z" fill="var(--primary-color, #C4A7DA)"/></symbol><symbol fill="none" viewBox="0 0 58 116" id="contacts__facebook" xmlns="http://www.w3.org/2000/svg"><path d="M53.502 65.356l2.969-20.767H37.908V31.113c0-5.682 2.593-11.22 10.907-11.22h8.439V2.213S49.595.81 42.274.81c-15.288 0-25.28 9.946-25.28 27.952v15.827H0v20.767h16.993v50.202h20.915V65.356h15.594z" fill="var(--primary-color, #E5E5E5)"/></symbol><symbol fill="none" viewBox="0 0 115 116" id="contacts__instagram" xmlns="http://www.w3.org/2000/svg"><path d="M57.76 28.764c-16.248 0-29.353 13.135-29.353 29.42 0 16.285 13.105 29.42 29.352 29.42s29.352-13.135 29.352-29.42c0-16.285-13.105-29.42-29.352-29.42zm0 48.547c-10.5 0-19.083-8.578-19.083-19.127 0-10.55 8.557-19.127 19.082-19.127s19.082 8.578 19.082 19.127c0 10.55-8.583 19.127-19.082 19.127zm37.398-49.75a6.838 6.838 0 0 1-6.847 6.861 6.838 6.838 0 0 1-6.846-6.862c0-3.79 3.066-6.862 6.846-6.862 3.781 0 6.847 3.073 6.847 6.862zm19.44 6.964c-.435-9.192-2.529-17.335-9.248-24.043-6.693-6.709-14.816-8.808-23.987-9.27-9.452-.537-37.782-.537-47.233 0-9.146.436-17.27 2.536-23.988 9.244C3.424 17.165 1.355 25.307.895 34.5c-.537 9.474-.537 37.87 0 47.344.434 9.192 2.529 17.334 9.247 24.043 6.719 6.708 14.817 8.808 23.988 9.269 9.451.538 37.781.538 47.233 0 9.17-.435 17.294-2.535 23.987-9.269 6.693-6.709 8.788-14.851 9.248-24.043.536-9.474.536-37.844 0-47.318zm-12.211 57.483c-1.993 5.019-5.85 8.885-10.882 10.908-7.536 2.995-25.418 2.304-33.746 2.304-8.328 0-26.235.666-33.745-2.304-5.007-1.998-8.865-5.864-10.883-10.908-2.989-7.553-2.299-25.477-2.299-33.824 0-8.347-.664-26.296 2.3-33.824 1.992-5.019 5.85-8.885 10.882-10.908 7.535-2.996 25.417-2.304 33.745-2.304 8.328 0 26.235-.666 33.746 2.304 5.007 1.997 8.864 5.864 10.882 10.908 2.989 7.553 2.299 25.477 2.299 33.824 0 8.347.69 26.296-2.299 33.824z" fill="var(--primary-color, #E5E5E5)"/></symbol><symbol fill="none" viewBox="0 0 61 61" id="menu__phone" xmlns="http://www.w3.org/2000/svg"><path d="M54.065.773H6.922A6.429 6.429 0 0 0 .494 7.2v47.143a6.429 6.429 0 0 0 6.428 6.429h47.143a6.429 6.429 0 0 0 6.429-6.429V7.201A6.429 6.429 0 0 0 54.065.773zM51.87 41.938l-2.009 8.706a2.009 2.009 0 0 1-1.957 1.557c-21.428 0-38.839-17.372-38.839-38.839a2.103 2.103 0 0 1 1.558-1.957l8.705-2.009c.149-.031.3-.048.451-.052a2.18 2.18 0 0 1 1.847 1.218l4.018 9.375c.099.252.153.52.162.791a2.277 2.277 0 0 1-.736 1.555l-5.075 4.152A31.06 31.06 0 0 0 34.832 41.27l4.151-5.074c.402-.44.96-.704 1.555-.737.271.009.54.064.792.162l9.375 4.018a2.178 2.178 0 0 1 1.217 1.847c-.002.152-.02.303-.052.451z" fill="var(--primary-color, #C4A7DA)"/></symbol><symbol fill="none" viewBox="0 0 50 46" id="our-masters__arrow-l" xmlns="http://www.w3.org/2000/svg"><path d="M5.232 20.768a2.5 2.5 0 0 1 0-3.536l15.91-15.91a2.5 2.5 0 0 1 3.536 3.536L10.535 19l14.143 14.142a2.5 2.5 0 0 1-3.536 3.536l-15.91-15.91zM46 21.5H7v-5h39v5z" fill="var(--primary-color, #C4A7DA)"/></symbol><symbol fill="none" viewBox="0 0 50 46" id="our-masters__arrow-r" xmlns="http://www.w3.org/2000/svg"><path d="M44.768 20.768a2.5 2.5 0 0 0 0-3.536l-15.91-15.91a2.5 2.5 0 0 0-3.536 3.536L39.465 19 25.322 33.142a2.5 2.5 0 0 0 3.536 3.536l15.91-15.91zM4 21.5h39v-5H4v5z" fill="var(--primary-color, #C4A7DA)"/></symbol><symbol fill="none" viewBox="0 0 20 20" id="review-box__smile" xmlns="http://www.w3.org/2000/svg"><path d="M10 0C4.476 0 0 4.476 0 10s4.476 10 10 10 10-4.476 10-10S15.524 0 10 0zM4.516 8.685c.133-1.697 1.299-2.879 2.258-2.879.96 0 2.125 1.182 2.258 2.88.028.346-.435.48-.6.18l-.384-.685c-.31-.552-.774-.87-1.27-.87s-.96.318-1.27.87l-.383.686c-.173.298-.637.161-.609-.182zm10.113 4.952A6.007 6.007 0 0 1 10 15.807c-1.794 0-3.48-.79-4.629-2.17-.544-.657.444-1.48.992-.827A4.712 4.712 0 0 0 10 14.512a4.725 4.725 0 0 0 3.637-1.702c.548-.653 1.536.174.992.827zm.25-4.77l-.383-.686c-.31-.552-.774-.87-1.27-.87s-.96.318-1.27.87l-.383.686c-.166.294-.63.161-.601-.182.133-1.697 1.298-2.879 2.258-2.879s2.125 1.182 2.258 2.88c.024.346-.444.48-.609.18z" fill="var(--primary-color, #fefffe)"/></symbol></svg>